<svg width="793" height="962" viewBox="0 0 793 962" fill="none" xmlns="http://www.w3.org/2000/svg">
<path d="M617.528 358.076L617.536 323.449C617.538 314.991 608.908 298.074 589.724 298.07C587.166 298.069 502.434 298.05 492.042 298.048" stroke="#F5A1A1" stroke-width="16" stroke-linecap="round"/>
<path d="M556.949 706.062L591.576 706.07C600.034 706.072 616.951 697.443 616.955 678.258C616.955 675.7 616.958 665.468 616.96 655.076" stroke="#F5A1A1" stroke-width="16" stroke-linecap="round"/>
<path d="M122.536 297.963L-75.9586 299.467" stroke="#F5A1A1" stroke-width="16" stroke-linecap="round"/>
<path d="M493.949 705.042L22.9484 706.49" stroke="#F5A1A1" stroke-width="16" stroke-linecap="round"/>
<rect x="-116" y="328" width="701" height="349" rx="20" fill="#F5A1A1"/>
<path d="M70 372C71.5 366 85.5 356 96.9999 355C85.5 362.5 79.5 365.5 70 372Z" fill="#CD5F5F"/>
<path d="M438 372.5C429.5 360.5 415.5 354.5 411.085 355.09C422.585 362.59 428.5 366 438 372.5Z" fill="#CD5F5F"/>
<rect x="474" y="430" width="28" height="33" rx="3" fill="#666666"/>
<path d="M339.579 609.655C339.579 628.019 334.17 644.604 325.475 656.574C316.78 668.545 304.853 675.84 291.775 675.84C278.698 675.84 266.77 668.545 258.075 656.574C249.38 644.604 243.971 628.019 243.971 609.655C243.971 591.29 249.38 574.705 258.075 562.735C266.77 550.764 278.698 543.469 291.775 543.469C304.853 543.469 316.78 550.764 325.475 562.735C334.17 574.705 339.579 591.29 339.579 609.655Z" fill="#474747" stroke="#474747" stroke-width="2"/>
<path d="M605.072 609.655C605.072 628.019 599.663 644.604 590.968 656.574C582.273 668.545 570.345 675.84 557.268 675.84C544.19 675.84 532.263 668.545 523.567 656.574C514.873 644.604 509.464 628.019 509.464 609.655C509.464 591.29 514.873 574.705 523.568 562.735C532.263 550.764 544.19 543.469 557.268 543.469C570.345 543.469 582.273 550.764 590.968 562.735C599.663 574.705 605.072 591.29 605.072 609.655Z" fill="#474747" stroke="#474747" stroke-width="2"/>
<path d="M411.508 355.001L97.3002 355C96.8093 355 96.3211 355.073 95.8513 355.215L93.113 356.044L86.6525 358C86.1038 358.166 85.5874 358.426 85.1266 358.767L72.1881 368.343C71.5275 368.832 70.9975 369.476 70.6453 370.219L4.47928 509.681C4.05753 510.57 3.90743 511.563 4.04778 512.537L11.6412 565.226L19.2257 595.749C19.3738 596.345 19.6306 596.909 19.9831 597.412L32.6178 615.447C32.9467 615.916 33.3539 616.326 33.8215 616.657L48.4091 626.997C49.2542 627.596 50.2645 627.918 51.3004 627.918L583.622 627.918L586.759 627.861C587.77 627.843 588.752 627.518 589.575 626.931L592.003 625.196C592.553 624.803 593.018 624.303 593.369 623.725L595.335 620.491L608.585 590.019C608.859 589.39 609 588.712 609 588.025L609 507.359C609 506.791 608.903 506.226 608.713 505.69L602.823 489.055C602.402 487.865 601.546 486.879 600.427 486.294L581.026 476.148C580.712 475.983 580.38 475.853 580.038 475.758L481.767 448.671C480.444 448.306 479.33 447.414 478.684 446.204L474.523 438.402L445.057 380.751C444.875 380.395 444.651 380.062 444.389 379.759L433.076 366.659C432.694 366.217 432.238 365.846 431.729 365.561L413.945 355.635C413.2 355.219 412.361 355.001 411.508 355.001Z" fill="#CD5F5F"/>
<path d="M608.888 582C610 593.5 606.5 601 596.544 611.422C601.653 598.678 604.842 592.776 608.888 582Z" fill="#CD5F5F"/>
<ellipse cx="340.822" cy="609.655" rx="48.8038" ry="67.1853" fill="#666666"/>
<ellipse cx="332.375" cy="605.922" rx="27.2175" ry="43.546" fill="#C2C2C2"/>
<ellipse cx="330.498" cy="607.166" rx="17.8322" ry="29.8601" fill="#EFD064"/>
<ellipse cx="80.9426" cy="609.655" rx="48.8038" ry="67.1853" fill="#666666"/>
<ellipse cx="72.4959" cy="605.922" rx="27.2175" ry="43.546" fill="#C2C2C2"/>
<ellipse cx="70.6188" cy="607.166" rx="17.8322" ry="29.8601" fill="#EFD064"/>
<path d="M300.334 367.321C277.937 367.321 284.224 390.097 286.85 400.942C288.776 408.895 293.592 427.622 297.444 438.901C301.297 450.18 313.817 453 319.595 453L456.354 453C477.928 453 474.974 442.155 471.764 435.647C468.554 429.14 459.244 410.703 449.613 391.181C440.945 371.66 429.941 367.376 427.462 367.321C394.396 366.598 322.485 367.321 300.334 367.321Z" fill="#D9D9D9" stroke="#B85555" stroke-width="2"/>
<path d="M306.732 369.306C285.16 369.306 291.215 391.022 293.745 401.363C295.601 408.947 300.239 426.802 303.949 437.557C307.659 448.311 319.718 451 325.284 451L457.005 451C477.783 451 474.938 440.659 471.846 434.454C468.754 428.25 459.787 410.67 450.511 392.057C442.163 373.443 431.565 369.358 429.176 369.306C397.328 368.617 328.067 369.306 306.732 369.306Z" fill="#EBECD8"/>
<path d="M174.715 385.733L166.911 442.775C166.125 449.71 171.822 452.166 174.768 452.528C194.412 452.528 238.611 453.611 258.254 453.611C278.88 453.611 280.845 452.528 279.863 443.859C277.898 435.189 269.419 407.125 265.13 392.928C261.201 379.924 255.308 375.59 252.361 375.59L190.483 375.59C177.003 375.589 176.738 378.714 174.882 384.962C174.807 385.214 174.75 385.473 174.715 385.733Z" fill="#D9D9D9" stroke="#B85555" stroke-width="2"/>
<path d="M179.37 386.396L172.069 439C171.333 445.4 176.667 447.667 179.425 448C197.815 448 239.194 449 257.584 449C276.894 449 278.733 448 277.813 440C275.974 432 268.036 406.101 264.021 393C260.342 381 254.825 377 252.067 377L194.137 377C181.542 377 181.27 379.872 179.542 385.616C179.465 385.87 179.407 386.132 179.37 386.396Z" fill="#EBECD8"/>
<path d="M147.28 375.59L106.674 375.59C95.0707 375.59 93.6195 382.844 92.1703 385.48C87.3362 394.272 78.6353 415.15 71.8685 433.831C68.2861 443.721 79.6031 453.611 85.4039 453.611C93.5947 453.611 108.795 453.611 120.922 453.611L133.745 453.611C144.379 453.611 147.643 447.018 148.247 441.523C149.858 426.871 154.046 395.37 155.014 386.579C155.994 377.683 150.179 375.59 147.28 375.59Z" fill="#D9D9D9" stroke="#B85555" stroke-width="2"/>
<path d="M146.804 377L109.557 377C98.9133 377 97.5821 383.694 96.2527 386.127C91.8185 394.24 83.8371 413.507 77.63 430.746C74.3439 439.873 84.7249 449 90.046 449C97.5593 449 111.503 449 122.626 449L134.389 449C144.144 449 147.137 442.916 147.691 437.845C149.169 424.324 153.011 395.254 153.899 387.141C154.798 378.932 149.464 377 146.804 377Z" fill="#EBECD8"/>
<path d="M452.519 418.037C456.186 417.036 437.019 379.037 430.519 376.537C425.519 372.037 386.019 374.036 387.019 378.537C388.037 383.121 422.519 385.236 425.519 387.037C428.519 388.837 445.185 420.037 452.519 418.037Z" fill="white"/>
<rect x="398" y="440.264" width="60" height="4" rx="2" transform="rotate(-15.7279 398 440.264)" fill="#666666"/>
<rect x="400.098" y="452.275" width="33.608" height="4" rx="2" transform="rotate(-37.1043 400.098 452.275)" fill="#666666"/>
<rect x="274.206" y="444.942" width="9.76076" height="13.0036" rx="1" fill="#666666"/>
<rect x="237.115" y="429.771" width="39.0431" height="32.509" rx="5" fill="#666666"/>
<path d="M266.665 437.062C263.158 436.164 263.809 431 267.43 431L270.986 431C272.651 431 274 432.349 274 434.014L274 438.708C274 441.854 269.443 442.271 268.872 439.177V439.177C268.69 438.185 267.948 437.391 266.971 437.141L266.665 437.062Z" fill="#D9D9D9"/>
<path d="M146.34 508.179L146.34 586.899C147.316 599.902 157.076 600.986 161.957 600.986C195.143 600.986 263.859 601.853 273.229 600.986C284.942 599.902 285.918 592.317 285.918 589.066C285.918 587.982 284.85 519.654 285.918 507.793C286.895 496.956 293.727 474.2 293.727 466.615C293.727 455.778 275.404 394.419 270.301 378.84C268.172 372.338 260.54 366.806 254.684 366.92C236.139 367.281 191.629 366.921 181.478 366.92C171.718 366.92 167.813 372.338 165.861 382.092L146.399 507.412C146.359 507.666 146.34 507.923 146.34 508.179Z" stroke="#B85555" stroke-width="2"/>
<mask id="path-32-inside-1_42_11" fill="white">
<path d="M164.885 479.452C164.885 478.347 165.78 477.452 166.885 477.452L195.119 477.452C195.672 477.452 196.119 477.899 196.119 478.452L196.119 486.288C196.119 487.393 195.224 488.288 194.119 488.288L165.885 488.288C165.333 488.288 164.885 487.84 164.885 487.288L164.885 479.452Z"/>
</mask>
<path d="M164.885 479.452C164.885 478.347 165.78 477.452 166.885 477.452L195.119 477.452C195.672 477.452 196.119 477.899 196.119 478.452L196.119 486.288C196.119 487.393 195.224 488.288 194.119 488.288L165.885 488.288C165.333 488.288 164.885 487.84 164.885 487.288L164.885 479.452Z" fill="#474747" stroke="#B85555" stroke-width="4" mask="url(#path-32-inside-1_42_11)"/>
<rect x="7" y="575" width="22" height="21" rx="4" fill="#EBECD8" stroke="#CD5F5F" stroke-width="2"/>
<rect x="120.229" y="516.631" width="19.3957" height="21.9818" rx="7" fill="#474747" fill-opacity="0.8"/>
<rect x="566" y="514" width="39" height="27" rx="4" fill="#D9D9D9" stroke="#B85555" stroke-width="2"/>
<rect x="569" y="517" width="35" height="21" rx="5" fill="#FCFDE8"/>
<rect x="438" y="514" width="48" height="27" rx="4" fill="#D9D9D9" stroke="#B85555" stroke-width="2"/>
<rect x="442" y="517" width="42" height="21" rx="5" fill="#FCFDE8"/>
<path d="M442 531H484V533C484 535.761 481.761 538 479 538H447C444.239 538 442 535.761 442 533V531Z" fill="#EBECD8"/>
<path d="M569 531H604V533C604 535.761 601.761 538 599 538H574C571.239 538 569 535.761 569 533V531Z" fill="#EBECD8"/>
<rect x="430.5" y="578.5" width="186" height="19" rx="5.5" fill="#EFD064" stroke="#CD5F5F"/>
<path d="M431 592.5C431 590.015 433.015 588 435.5 588H616V592C616 594.761 613.761 597 611 597H435.5C433.015 597 431 594.985 431 592.5V592.5Z" fill="#D9BC58"/>
<path d="M309.889 521.236L306 471.2C306.972 463.382 315.723 454 323.501 454C345.864 454 426.565 454 494.625 454C502.524 454 594.567 476.5 601.035 488C607.503 496 607.503 501 608 510.291L436.288 510.291C429.244 510.291 422.351 516.546 419.759 518.109L390.59 535.309C369.523 535.831 325.835 536.56 319.612 535.309C313.389 534.058 310.537 525.406 309.889 521.236Z" stroke="#B85555" stroke-width="2"/>
</svg>
