<svg width="623" height="489" viewBox="0 0 623 489" fill="none" xmlns="http://www.w3.org/2000/svg">
<path d="M30.6275 451.262C26.3016 450.363 22.0661 453.141 21.1673 457.467C20.2685 461.793 23.0466 466.029 27.3725 466.927L30.6275 451.262ZM432.292 457.665C436.525 456.399 438.93 451.942 437.665 447.709C436.399 443.475 431.942 441.07 427.708 442.335L432.292 457.665ZM27.3725 466.927C119.677 486.107 260.4 509.054 432.292 457.665L427.708 442.335C259.6 492.594 121.99 470.245 30.6275 451.262L27.3725 466.927Z" fill="#FAC0DF"/>
<ellipse cx="453" cy="438.5" rx="9" ry="8.5" fill="#FAC0DF"/>
<ellipse cx="24" cy="16.5" rx="9" ry="8.5" fill="#FAC0DF"/>
<ellipse cx="55" cy="8.5" rx="9" ry="8.5" fill="#FAC0DF"/>
<ellipse cx="204" cy="233" rx="419" ry="222" fill="#FAC0DF"/>
<path d="M435 287.5C435 329.474 336.995 372.5 223.5 372.5C110.005 372.5 12.5 336 19 295C25 257.154 106 230.5 219.5 227C332.995 227 435 245.526 435 287.5Z" fill="#5A3737" fill-opacity="0.42"/>
<path d="M436.527 285.347C438.674 322.249 353.123 355.963 247.602 362.102C142.081 368.24 54.7996 343.301 52.6529 306.398C52.2811 250.773 134.307 234.604 239.828 228.466C345.349 222.327 445.728 239.615 436.527 285.347Z" fill="#A9C4F8"/>
<mask id="mask0_37_7" style="mask-type:alpha" maskUnits="userSpaceOnUse" x="53" y="218" width="384" height="137">
<ellipse cx="244.979" cy="286.539" rx="191.385" ry="66.9309" transform="rotate(-3.32927 244.979 286.539)" fill="#EECCCC"/>
</mask>
<g mask="url(#mask0_37_7)">
<rect x="18" y="218" width="503" height="215" fill="#95ABB3"/>
</g>
<path d="M342.514 188.561C349.456 179.168 353.014 169.561 358.514 155.561C361.514 147.061 362.014 141.561 355.514 138.561C347.514 135.061 331.782 145.767 322.514 153.561C313.075 149.89 299.485 139.693 315.219 130.898C334.887 119.903 337.514 119.561 347.514 119.561C358.061 119.561 362.406 123.754 366.514 126.561C375.514 136.061 378.227 146.282 377.014 153.561C375.514 162.561 366.467 185.294 358.514 196.561C352.514 205.061 352.514 205.061 338.433 221.968C321.136 242.736 312.744 246.301 309.498 244.567L309.517 233.634C308.321 226.467 306.896 214.221 313.544 216.584C320.514 219.061 334.014 200.061 342.514 188.561Z" fill="#8DC3EB"/>
<mask id="mask1_37_7" style="mask-type:alpha" maskUnits="userSpaceOnUse" x="316" y="119" width="70" height="126">
<path d="M351.121 188.561C358.063 179.168 361.621 169.561 367.121 155.561C370.121 147.061 370.621 141.561 364.121 138.561C356.121 135.061 340.389 145.767 331.121 153.561C321.682 149.89 308.092 139.693 323.826 130.898C343.494 119.903 346.121 119.561 356.121 119.561C366.668 119.561 371.013 123.754 375.121 126.561C384.121 136.061 386.834 146.282 385.621 153.561C384.121 162.561 375.074 185.294 367.121 196.561C361.121 205.061 361.121 205.061 347.04 221.968C329.743 242.736 321.351 246.301 318.106 244.567L318.124 233.634C316.928 226.467 315.503 214.221 322.151 216.584C329.121 219.061 342.621 200.061 351.121 188.561Z" fill="#5C7D88"/>
</mask>
<g mask="url(#mask1_37_7)">
<rect x="290.121" y="104.061" width="134" height="161" fill="#5C7D88"/>
<path d="M319.621 226.061L321.121 216.561L320.621 216.061L330.121 210.561L339.621 200.061L348.621 189.061L354.621 178.061L361.121 165.061L366.121 154.561L368.121 149.061L367.121 144.561L366.121 141.061L365.121 139.061L374.121 143.561L374.621 157.561L368.121 172.561L358.121 191.061C351.621 199.061 345.121 207.561 337.621 215.061C331.165 221.517 324.788 224.894 319.621 226.061Z" fill="#5E6C7D"/>
</g>
<path d="M320.469 263.672C323.01 284.873 299.621 311.561 224.621 318.061C168.672 324.764 120.402 309.149 117.862 287.949C115.321 266.748 158.617 244.127 214.566 237.423C270.514 230.719 317.929 242.471 320.469 263.672Z" fill="#7C97A3"/>
<mask id="mask2_37_7" style="mask-type:alpha" maskUnits="userSpaceOnUse" x="152" y="106" width="182" height="204">
<path d="M156.021 272.69C161.044 220.967 152.12 140.667 152.12 140.667C155.658 116.194 217.263 101.25 270.493 107.607C313.062 112.691 330.454 133.962 333.834 143.971C333.84 143.955 333.841 143.958 333.837 143.981C333.836 143.978 333.835 143.974 333.834 143.971C333.507 144.928 317.626 215.228 321.445 267.782C325.328 321.205 150.998 324.414 156.021 272.69Z" fill="#D4A2A2"/>
</mask>
<g mask="url(#mask2_37_7)">
<rect x="140.032" y="120.841" width="226.637" height="175.39" transform="rotate(8.22667 140.032 120.841)" fill="#5C7D88"/>
<path d="M139.119 145.914L205.261 145.01L209.425 199.805L209.681 259.913L207.585 315.046L141.444 315.951L139.119 145.914Z" fill="#5E6C7D"/>
</g>
<path d="M333.416 144.93C333.197 168.893 292.417 187.949 242.332 187.492C192.246 187.034 151.821 167.238 152.04 143.274C152.259 119.311 193.038 100.256 243.124 100.713C293.21 101.17 333.635 120.967 333.416 144.93Z" fill="#E5ECF3"/>
<mask id="mask3_37_7" style="mask-type:alpha" maskUnits="userSpaceOnUse" x="162" y="108" width="161" height="74">
<path d="M322.912 145.824C322.726 166.12 286.645 182.245 242.321 181.84C197.998 181.436 162.217 164.655 162.402 144.359C162.588 124.063 198.669 107.939 242.992 108.343C287.316 108.748 323.097 125.529 322.912 145.824Z" fill="#5E3325"/>
</mask>
<g mask="url(#mask3_37_7)">
<path d="M323.714 145.548C323.535 165.209 287.195 180.816 242.547 180.409C197.899 180.001 161.85 163.732 162.029 144.072C162.209 124.411 198.549 108.803 243.197 109.21C287.845 109.618 323.894 125.887 323.714 145.548Z" fill="#9DB0B6"/>
<path d="M320.643 159.237C320.52 172.737 285.636 183.362 242.729 182.971C199.821 182.579 165.137 171.318 165.26 157.819C165.383 144.32 200.267 133.694 243.175 134.086C286.083 134.478 320.767 145.738 320.643 159.237Z" fill="#476A84"/>
<path d="M319.947 168.679C319.864 177.763 285.013 184.81 242.105 184.418C199.197 184.026 164.481 176.345 164.564 167.261C164.647 158.177 200.047 144.927 242.955 145.319C285.863 145.71 320.03 159.595 319.947 168.679Z" fill="#403560"/>
</g>
<path d="M428.892 275.982C429.434 273.556 427.907 271.151 425.482 270.608C423.056 270.066 420.651 271.593 420.108 274.018L428.892 275.982ZM328.302 326.554C325.847 326.94 324.169 329.243 324.554 331.698C324.94 334.153 327.243 335.831 329.698 335.446L328.302 326.554ZM420.108 274.018C417.52 285.597 396.227 315.892 328.302 326.554L329.698 335.446C399.373 324.508 425.146 292.736 428.892 275.982L420.108 274.018Z" fill="#D7F3F9"/>
<path d="M316.92 333.563C317.343 336.012 315.26 338.417 312.267 338.934C309.273 339.452 307.423 339.449 307 337C306.577 334.551 309.007 337.017 312 336.5C314.993 335.983 316.497 331.114 316.92 333.563Z" fill="#D7F3F9"/>
<ellipse cx="421.186" cy="262.371" rx="5.5" ry="4.5" transform="rotate(-9.80589 421.186 262.371)" fill="#D7F3F9"/>
<path d="M222.344 155.56C225.561 159.272 229.772 161.478 233.802 164.198C236.011 165.689 238.133 167.29 240.139 169.046C241.357 170.112 242.472 171.269 243.851 172.131" stroke="white" stroke-width="3" stroke-linecap="round"/>
<path d="M238.738 153.444C242.828 158.216 248.696 161.724 253.977 165.001C257.2 167 260.559 169.026 263.947 170.72" stroke="white" stroke-width="3" stroke-linecap="round"/>
<path d="M199.955 155.56C204.503 159.038 209.221 162.151 213.441 166.059C214.927 167.434 216.654 168.495 218.113 169.839C218.962 170.621 220.196 171.768 221.286 172.131" stroke="white" stroke-width="3" stroke-linecap="round"/>
<path d="M227.833 33.899C226.72 35.3538 225.814 36.8564 225.265 38.6228C224.886 39.8408 224.862 41.2032 224.862 42.4678C224.862 44.0185 224.965 45.3765 225.425 46.8663C225.777 48.0068 226.146 49.1467 226.629 50.2405C227.174 51.4745 227.941 52.5774 228.619 53.736C229.972 56.0449 231.508 58.2992 232.464 60.8144C233.422 63.3331 233.775 65.9427 233.775 68.6356C233.775 71.3157 233.519 73.6972 232.197 76.0684C231.362 77.5673 230.281 78.9987 229.144 80.2824C228.544 80.9587 227.6 81.8756 227.309 82.7487" stroke="white" stroke-width="20" stroke-linecap="round"/>
<path d="M263.487 34.8603C262.017 37.8425 260.762 41.0021 260.618 44.3661C260.524 46.5484 260.986 48.5225 261.846 50.5221C263.106 53.4504 264.611 56.2473 266.361 58.9113C268.416 62.0392 270.516 65.5462 271.245 69.2716C271.67 71.4399 271.798 73.552 271.857 75.7577C271.916 77.9942 271.893 80.2014 271.09 82.3215C270.537 83.7802 269.78 85.1506 269.036 86.5161C268.1 88.2347 267.182 89.9557 266.147 91.6185C265.012 93.4446 263.741 95.2269 262.832 97.1822C261.92 99.1421 261.222 101.167 260.477 103.193C259.455 105.97 259.192 109.014 259.661 111.936C259.83 112.987 260.046 114.035 260.322 115.063C260.415 115.413 260.461 116.007 260.778 116.218" stroke="white" stroke-width="19" stroke-linecap="round"/>
</svg>
