<svg width="69" height="69" viewBox="0 0 69 69" fill="none" xmlns="http://www.w3.org/2000/svg">
<circle cx="34.9695" cy="34.6395" r="24.3241" transform="rotate(126.26 34.9695 34.6395)" fill="#525050"/>
<circle cx="35.5" cy="32.5" r="12.5" fill="#D9D9D9"/>
<path d="M34.8756 33.8087L40.7722 58.1328" stroke="black"/>
<path d="M20.5829 54.2529C16.4409 51.2147 13.3671 46.9433 11.802 42.0508C10.2369 37.1583 10.2608 31.8959 11.8703 27.0179C13.4799 22.1398 16.5924 17.8965 20.7618 14.8961C24.9311 11.8958 29.9434 10.2923 35.08 10.3157C40.2167 10.339 45.2142 11.9879 49.3561 15.0261C53.498 18.0643 56.5718 22.3357 58.137 27.2282C59.7021 32.1207 59.6782 37.383 58.0686 42.2611C56.4591 47.1392 53.3466 51.3825 49.1772 54.3828L34.9695 34.6395L20.5829 54.2529Z" fill="black"/>
<circle cx="35" cy="35" r="5" fill="#D9D9D9" fill-opacity="0.2"/>
</svg>
