<svg width="243" height="151" viewBox="0 0 243 151" fill="none" xmlns="http://www.w3.org/2000/svg">
<path d="M57.9172 112.809C57.8899 114.075 57.3997 115.165 56.4465 116.078C55.5613 116.926 54.4856 117.336 53.2192 117.309L25.4256 116.71C23.0262 116.658 20.8063 116.01 18.766 114.766C16.7923 113.523 15.2271 111.889 14.0705 109.863C12.9139 107.838 12.3614 105.626 12.4131 103.226L13.2986 62.1357C13.3517 59.6696 13.9997 57.4497 15.2425 55.476C16.4853 53.5023 18.1194 51.9372 20.1448 50.7805C22.2369 49.6254 24.4826 49.0736 26.8821 49.1253L46.0776 49.539C48.477 49.5907 50.6636 50.2379 52.6373 51.4807C54.611 52.7236 56.1761 54.3577 57.3328 56.383C58.4894 58.4084 59.0411 60.6542 58.988 63.1203L57.9172 112.809ZM46.3798 95.8562L47.0908 62.8639C47.1109 61.9308 46.6877 61.4549 45.8212 61.4362L26.6257 61.0226C26.2924 61.0154 25.9563 61.1415 25.6173 61.4009C25.3449 61.6618 25.2045 61.9922 25.1958 62.3921L24.3104 103.483C24.3032 103.816 24.4293 104.152 24.6887 104.491C25.0162 104.765 25.3466 104.905 25.6799 104.912L36.5773 105.147C36.7773 105.152 36.9128 105.054 36.9837 104.856C37.1228 104.592 37.0945 104.358 36.8988 104.154L32.1055 99.1495C31.2577 98.2643 30.8475 97.1886 30.8748 95.9222L30.9566 92.1231C30.9782 91.1233 31.2635 90.2626 31.8125 89.5409C32.3629 88.7526 33.075 88.2011 33.9486 87.8866C34.8223 87.572 35.6902 87.524 36.5523 87.7426C37.4826 87.896 38.2397 88.3458 38.8238 89.0919L45.4714 96.2368C45.6685 96.3744 45.8677 96.412 46.0691 96.3497C46.2705 96.2873 46.374 96.1228 46.3798 95.8562ZM102.355 107.165C102.288 110.297 101.131 112.94 98.8838 115.092C96.705 117.179 94.0826 118.189 91.0167 118.123L77.1199 117.824C74.0539 117.758 71.4442 116.634 69.2907 114.454C67.1386 112.207 66.0963 109.518 66.1638 106.385L66.9372 70.4932C66.966 69.1602 67.4229 68.0698 68.308 67.222C69.2613 66.309 70.3711 65.8662 71.6374 65.8934L74.4368 65.9538C75.7032 65.9811 76.7595 66.4706 77.6059 67.4224C78.4537 68.3075 78.8632 69.4166 78.8345 70.7496L78.102 104.742C78.0948 105.075 78.2216 105.378 78.4825 105.65C78.81 105.924 79.1404 106.064 79.4736 106.072L89.1714 106.281C89.5046 106.288 89.8074 106.161 90.0798 105.9C90.4188 105.641 90.5919 105.344 90.5991 105.011L91.3316 71.0189C91.3603 69.6859 91.8172 68.5955 92.7024 67.7477C93.5889 66.8333 94.6654 66.3897 95.9318 66.417L98.7311 66.4773C99.9975 66.5046 101.054 66.9941 101.9 67.9459C102.748 68.831 103.158 69.9401 103.129 71.2732L102.355 107.165ZM146.681 108.12C146.614 111.253 145.456 113.895 143.209 116.047C141.031 118.134 138.408 119.144 135.342 119.078L121.446 118.779C118.38 118.713 115.77 117.59 113.616 115.409C111.464 113.162 110.422 110.473 110.489 107.34L111.263 71.4484C111.292 70.1154 111.749 69.025 112.634 68.1772C113.587 67.2642 114.697 66.8213 115.963 66.8486L118.762 66.909C120.029 66.9362 121.085 67.4258 121.932 68.3776C122.779 69.2627 123.189 70.3718 123.16 71.7048L122.428 105.697C122.42 106.03 122.547 106.333 122.808 106.605C123.136 106.879 123.466 107.02 123.799 107.027L133.497 107.236C133.83 107.243 134.133 107.116 134.405 106.855C134.744 106.596 134.918 106.299 134.925 105.966L135.657 71.9741C135.686 70.6411 136.143 69.5507 137.028 68.7029C137.915 67.7885 138.991 67.3449 140.257 67.3722L143.057 67.4325C144.323 67.4598 145.38 67.9493 146.226 68.9011C147.074 69.7862 147.483 70.8953 147.454 72.2283L146.681 108.12ZM191.007 109.075C190.939 112.208 189.782 114.85 187.535 117.002C185.356 119.089 182.734 120.1 179.668 120.033L165.771 119.734C162.705 119.668 160.095 118.545 157.942 116.365C155.79 114.118 154.748 111.428 154.815 108.295L155.931 56.5073C155.96 55.1743 156.417 54.0839 157.302 53.2361C158.254 52.3897 159.363 51.9802 160.629 52.0075L163.428 52.0678C164.695 52.0951 165.752 52.5513 166.6 53.4365C167.448 54.3216 167.857 55.4307 167.828 56.7637L167.613 66.7614C167.606 67.0946 167.733 67.3974 167.993 67.6698C168.322 67.8769 168.653 67.9841 168.987 67.9913L180.784 68.2455C182.85 68.29 184.706 68.8301 186.35 69.8658C187.995 70.9015 189.299 72.2965 190.261 74.051C191.225 75.7388 191.685 77.6158 191.64 79.682L191.007 109.075ZM179.25 106.921L179.798 81.5273C179.818 80.5942 179.361 80.1176 178.428 80.0975L168.73 79.8885C168.397 79.8813 168.061 80.0074 167.722 80.2669C167.45 80.5277 167.309 80.8581 167.3 81.258L166.753 106.652C166.746 106.985 166.873 107.288 167.134 107.561C167.461 107.834 167.792 107.975 168.125 107.982L177.823 108.191C178.756 108.211 179.232 107.788 179.25 106.921ZM235.731 91.5347C235.688 93.5342 235.148 95.3897 234.111 97.1011C233.075 98.7458 231.712 100.083 230.023 101.114C228.335 102.078 226.458 102.537 224.392 102.493L212.595 102.239C212.262 102.232 211.926 102.358 211.587 102.617C211.316 102.811 211.177 103.075 211.169 103.408L211.079 107.607C211.072 107.941 211.199 108.243 211.459 108.516C211.787 108.79 212.117 108.93 212.451 108.937L224.248 109.191C225.514 109.219 226.571 109.675 227.419 110.56C228.334 111.447 228.776 112.556 228.748 113.889L228.692 116.489C228.664 117.755 228.174 118.845 227.221 119.758C226.336 120.606 225.26 121.016 223.994 120.989L210.097 120.689C207.031 120.623 204.421 119.5 202.268 117.32C200.116 115.073 199.073 112.383 199.141 109.25L199.774 79.8573C199.819 77.7911 200.359 75.9357 201.394 74.2909C202.497 72.6476 203.892 71.3441 205.58 70.3802C207.269 69.3497 209.147 68.8567 211.213 68.9012L225.11 69.2007C227.176 69.2452 229.031 69.8186 230.674 70.921C232.319 71.9566 233.623 73.3184 234.587 75.0062C235.551 76.694 236.01 78.571 235.966 80.6372L235.731 91.5347ZM223.977 89.2809L224.123 82.4825C224.132 82.0826 223.972 81.7458 223.645 81.472C223.384 81.1996 223.087 81.0599 222.754 81.0527L213.056 80.8437C212.723 80.8365 212.387 80.9626 212.048 81.2221C211.775 81.4829 211.635 81.8133 211.626 82.2132L211.48 89.0116C211.474 89.2782 211.601 89.5477 211.862 89.8201C212.19 90.0939 212.52 90.2343 212.853 90.2415L222.551 90.4505C222.884 90.4577 223.187 90.3308 223.46 90.07C223.799 89.8106 223.971 89.5475 223.977 89.2809Z" fill="#DE7F7F"/>
<path d="M50.9188 112.658C50.8915 113.924 50.4013 115.014 49.448 115.927C48.5629 116.775 47.4872 117.185 46.2208 117.158L18.4272 116.559C16.0278 116.507 13.8079 115.859 11.7676 114.615C9.79389 113.372 8.22873 111.738 7.0721 109.713C5.91546 107.687 5.363 105.475 5.41471 103.075L6.30019 61.9849C6.35333 59.5188 7.00131 57.2989 8.24412 55.3252C9.48693 53.3515 11.121 51.7864 13.1464 50.6297C15.2385 49.4745 17.4842 48.9228 19.8836 48.9745L39.0792 49.3882C41.4786 49.4399 43.6652 50.0871 45.6389 51.3299C47.6126 52.5727 49.1777 54.2068 50.3343 56.2322C51.491 58.2576 52.0427 60.5034 51.9896 62.9695L50.9188 112.658ZM39.3814 95.7054L40.0923 62.7131C40.1124 61.78 39.6893 61.3041 38.8228 61.2854L19.6273 60.8717C19.294 60.8646 18.9579 60.9907 18.6189 61.2501C18.3465 61.511 18.206 61.8413 18.1974 62.2413L17.3119 103.332C17.3048 103.665 17.4309 104.001 17.6903 104.34C18.0178 104.614 18.3482 104.754 18.6815 104.762L29.5789 104.996C29.7789 105.001 29.9143 104.904 29.9853 104.705C30.1243 104.441 30.096 104.207 29.9004 104.003L25.1071 98.9987C24.2593 98.1135 23.8491 97.0378 23.8764 95.7714L23.9582 91.9723C23.9798 90.9725 24.265 90.1118 24.8141 89.3901C25.3645 88.6018 26.0765 88.0503 26.9502 87.7357C27.8238 87.4212 28.6917 87.3732 29.5539 87.5918C30.4841 87.7452 31.2413 88.195 31.8254 88.9411L38.473 96.0859C38.67 96.2236 38.8693 96.2612 39.0707 96.1988C39.2721 96.1365 39.3756 95.972 39.3814 95.7054ZM95.357 107.014C95.2895 110.147 94.1323 112.789 91.8854 114.941C89.7066 117.028 87.0842 118.038 84.0183 117.972L70.1215 117.673C67.0555 117.607 64.4458 116.484 62.2923 114.303C60.1402 112.056 59.0979 109.367 59.1654 106.234L59.9388 70.3424C59.9676 69.0094 60.4245 67.919 61.3096 67.0712C62.2628 66.1582 63.3726 65.7153 64.639 65.7426L67.4384 65.803C68.7047 65.8302 69.7611 66.3198 70.6075 67.2716C71.4553 68.1567 71.8648 69.2658 71.8361 70.5988L71.1036 104.591C71.0964 104.924 71.2232 105.227 71.4841 105.499C71.8116 105.773 72.142 105.914 72.4752 105.921L82.173 106.13C82.5062 106.137 82.809 106.01 83.0814 105.749C83.4204 105.49 83.5935 105.193 83.6007 104.86L84.3332 70.8681C84.3619 69.5351 84.8188 68.4447 85.704 67.5969C86.5905 66.6824 87.667 66.2389 88.9334 66.2662L91.7327 66.3265C92.9991 66.3538 94.0555 66.8433 94.9018 67.7951C95.7496 68.6802 96.1592 69.7893 96.1304 71.1223L95.357 107.014ZM139.683 107.969C139.615 111.102 138.458 113.744 136.211 115.896C134.032 117.983 131.41 118.994 128.344 118.927L114.447 118.628C111.381 118.562 108.771 117.439 106.618 115.259C104.466 113.012 103.424 110.322 103.491 107.189L104.264 71.2976C104.293 69.9646 104.75 68.8742 105.635 68.0264C106.588 67.1134 107.698 66.6705 108.965 66.6978L111.764 66.7581C113.03 66.7854 114.087 67.275 114.933 68.2268C115.781 69.1119 116.19 70.221 116.162 71.554L115.429 105.546C115.422 105.879 115.549 106.182 115.81 106.455C116.137 106.728 116.468 106.869 116.801 106.876L126.499 107.085C126.832 107.092 127.135 106.965 127.407 106.704C127.746 106.445 127.919 106.149 127.926 105.815L128.659 71.8233C128.688 70.4903 129.144 69.3999 130.03 68.5521C130.916 67.6376 131.993 67.1941 133.259 67.2214L136.058 67.2817C137.325 67.309 138.381 67.7985 139.227 68.7503C140.075 69.6354 140.485 70.7445 140.456 72.0775L139.683 107.969ZM184.008 108.924C183.941 112.057 182.784 114.699 180.537 116.851C178.358 118.938 175.736 119.949 172.67 119.883L158.773 119.583C155.707 119.517 153.097 118.394 150.944 116.214C148.791 113.967 147.749 111.277 147.817 108.144L148.933 56.3565C148.961 55.0235 149.418 53.9331 150.303 53.0853C151.255 52.2389 152.364 51.8294 153.631 51.8567L156.43 51.917C157.696 51.9443 158.754 52.4005 159.601 53.2856C160.449 54.1708 160.859 55.2799 160.83 56.6129L160.614 66.6106C160.607 66.9438 160.734 67.2466 160.995 67.519C161.324 67.7261 161.655 67.8333 161.988 67.8405L173.786 68.0947C175.852 68.1392 177.707 68.6793 179.352 69.715C180.997 70.7507 182.3 72.1457 183.263 73.9002C184.227 75.588 184.686 77.465 184.642 79.5312L184.008 108.924ZM172.252 106.771L172.799 81.3765C172.819 80.4434 172.363 79.9668 171.43 79.9467L161.732 79.7377C161.399 79.7305 161.063 79.8566 160.724 80.1161C160.451 80.3769 160.311 80.7073 160.302 81.1072L159.755 106.501C159.748 106.835 159.875 107.137 160.135 107.41C160.463 107.684 160.793 107.824 161.127 107.831L170.824 108.04C171.757 108.06 172.233 107.637 172.252 106.771ZM228.732 91.3839C228.689 93.3834 228.149 95.2389 227.112 96.9503C226.077 98.595 224.714 99.9326 223.025 100.963C221.337 101.927 219.46 102.387 217.394 102.342L205.597 102.088C205.263 102.081 204.927 102.207 204.588 102.466C204.317 102.66 204.178 102.924 204.171 103.257L204.08 107.457C204.073 107.79 204.2 108.093 204.461 108.365C204.789 108.639 205.119 108.779 205.452 108.786L217.249 109.041C218.516 109.068 219.573 109.524 220.421 110.409C221.335 111.296 221.778 112.406 221.749 113.739L221.693 116.338C221.666 117.604 221.176 118.694 220.222 119.607C219.337 120.455 218.262 120.865 216.995 120.838L203.098 120.538C200.032 120.472 197.423 119.349 195.269 117.169C193.117 114.922 192.075 112.232 192.142 109.1L192.776 79.7065C192.82 77.6403 193.36 75.7849 194.396 74.1401C195.498 72.4968 196.893 71.1932 198.581 70.2294C200.271 69.1989 202.148 68.7059 204.214 68.7504L218.111 69.0499C220.177 69.0944 222.032 69.6678 223.675 70.7701C225.32 71.8058 226.624 73.1676 227.588 74.8554C228.552 76.5432 229.012 78.4202 228.967 80.4864L228.732 91.3839ZM216.978 89.1301L217.125 82.3317C217.133 81.9318 216.974 81.595 216.646 81.3212C216.386 81.0488 216.089 80.909 215.755 80.9019L206.058 80.6929C205.724 80.6857 205.388 80.8118 205.049 81.0713C204.777 81.3321 204.636 81.6625 204.628 82.0624L204.481 88.8608C204.475 89.1274 204.603 89.3969 204.864 89.6693C205.191 89.943 205.522 90.0835 205.855 90.0907L215.553 90.2997C215.886 90.3069 216.189 90.18 216.461 89.9192C216.8 89.6597 216.973 89.3967 216.978 89.1301Z" fill="#F5A1A1"/>
</svg>
