<svg width="172" height="165" viewBox="0 0 172 165" fill="none" xmlns="http://www.w3.org/2000/svg">
<path d="M37.6067 110.05C37.7802 111.305 37.464 112.425 36.6582 113.412C35.9184 114.389 34.9211 114.964 33.6664 115.138L30.9918 115.508C29.7371 115.681 28.5881 115.402 27.5449 114.672C26.5677 113.932 25.9923 112.935 25.8188 111.68L20.3405 72.0569C20.1579 70.7361 20.4364 69.5871 21.1762 68.6099C21.9821 67.6236 23.0124 67.0437 24.2671 66.8702L26.9417 66.5004C28.1964 66.3269 29.3124 66.6101 30.2896 67.3499C31.3328 68.0806 31.9457 69.1063 32.1283 70.427L37.6067 110.05ZM41.3145 125.185C41.5975 127.232 41.0801 129.087 39.7621 130.75C38.5101 132.404 36.8935 133.368 34.9124 133.641C32.8652 133.924 30.9817 133.445 29.2619 132.202C27.6082 130.95 26.6398 129.3 26.3568 127.253C26.0737 125.206 26.5582 123.355 27.8102 121.702C29.1282 120.039 30.8108 119.066 32.858 118.783C34.8391 118.509 36.6566 118.998 38.3103 120.25C40.03 121.493 41.0314 123.138 41.3145 125.185ZM106.243 96.5223C106.654 99.494 105.949 102.183 104.128 104.588C102.297 106.927 99.8635 108.307 96.8257 108.727L88.5049 109.878C87.1181 110.069 85.7984 110.016 84.5458 109.718C83.7259 109.63 82.9665 109.735 82.2674 110.033C81.2087 110.651 79.9529 111.06 78.5001 111.261L73.8443 111.905C70.8066 112.325 68.085 111.624 65.6796 109.803C63.265 107.916 61.8478 105.453 61.4278 102.416L59.6062 89.241C59.3231 87.1938 59.5628 85.2762 60.3251 83.4883C61.0874 81.7004 62.2256 80.197 63.7396 78.9782C65.2444 77.6933 66.9874 76.9139 68.9686 76.64L73.6243 75.9963C74.2847 75.905 74.9588 75.9127 75.6465 76.0195C76.3252 76.0603 76.9469 76.1762 77.5118 76.3673C78.3976 76.4468 79.181 76.2711 79.8617 75.8405C80.4947 75.5511 81.1323 75.2947 81.7744 75.0713C82.4735 74.7728 83.1862 74.5733 83.9126 74.4728C85.1673 74.2993 86.2548 74.6201 87.1751 75.4351C88.1523 76.1749 88.7277 77.1721 88.9012 78.4269L89.2846 81.2005C89.5586 83.1816 88.8872 84.6541 87.2707 85.6179C86.599 86.1146 86.318 86.7592 86.4276 87.5516L87.7013 96.764C87.8109 97.5564 88.2949 97.8933 89.1534 97.7746L93.0166 97.2405C93.8751 97.1218 94.2496 96.6662 94.14 95.8738L90.7161 71.1093C90.5882 70.1848 90.062 69.7864 89.1375 69.9143L55.9532 74.5024C55.3588 74.5846 54.99 74.8375 54.8467 75.2611C54.7694 75.6756 54.7399 75.9489 54.7581 76.081L60.3872 116.794C60.4328 117.124 60.5775 117.44 60.8213 117.743C61.122 117.971 61.5034 118.053 61.9657 117.989L95.15 113.401C96.4708 113.218 97.6198 113.497 98.597 114.236C99.5742 114.976 100.154 116.006 100.337 117.327L100.693 119.903C100.866 121.157 100.588 122.306 99.857 123.35C99.1172 124.327 98.0869 124.907 96.7661 125.089L63.5818 129.678C61.1384 130.015 58.8439 129.727 56.6984 128.812C54.5529 127.897 52.7489 126.532 51.2863 124.715C49.8236 122.898 48.928 120.801 48.5993 118.423L42.9703 77.7108C42.6324 75.2674 42.9209 72.9729 43.8357 70.8274C44.7504 68.6819 46.1162 66.8778 47.933 65.4152C49.7498 63.9526 51.8799 63.0524 54.3234 62.7145L87.5077 58.1264C89.9511 57.7886 92.2456 58.077 94.3911 58.9918C96.5366 59.9066 98.3406 61.2724 99.8032 63.0892C101.266 64.906 102.166 67.0361 102.504 69.4795L106.243 96.5223ZM75.9134 98.3938L74.6534 89.2805C74.5347 88.422 74.0461 88.0521 73.1876 88.1708L72.6923 88.2393C71.8338 88.358 71.4639 88.8466 71.5826 89.7051L72.8426 98.8184C72.9522 99.6108 73.4362 99.9477 74.2947 99.829L74.79 99.7605C75.6485 99.6418 76.023 99.1863 75.9134 98.3938ZM156.996 71.0309C157.38 73.8045 156.939 76.4566 155.673 78.987C154.399 81.4515 152.538 83.324 150.09 84.6046L143.058 88.5045C142.926 88.5228 142.775 88.6447 142.604 88.8702C142.527 89.2847 142.488 89.4919 142.488 89.4919L143.31 95.4354C143.483 96.6901 143.167 97.8106 142.361 98.797C141.621 99.7742 140.624 100.349 139.369 100.523L136.695 100.893C135.44 101.066 134.291 100.788 133.248 100.057C132.271 99.3172 131.695 98.3199 131.522 97.0652L130.673 90.9236C130.326 88.4141 130.761 85.9648 131.979 83.5755C133.262 81.1771 135 79.3889 137.193 78.2108L144.423 74.2835C145.056 73.9941 145.318 73.4532 145.208 72.6607L143.962 63.6465C143.916 63.3163 143.743 63.0374 143.443 62.8097C143.133 62.5161 142.813 62.392 142.483 62.4377L123.464 65.0673C123.133 65.113 122.826 65.3237 122.541 65.6996C122.314 66.0002 122.223 66.3157 122.268 66.6459L123.268 73.8771C123.442 75.1318 123.126 76.2523 122.32 77.2387C121.571 78.1498 120.602 78.6876 119.413 78.8519L116.64 79.2354C115.385 79.4089 114.241 79.1633 113.206 78.4987C112.229 77.7589 111.654 76.7616 111.48 75.5069L110.481 68.2757C110.152 65.8983 110.445 63.6369 111.36 61.4914C112.274 59.3459 113.64 57.5418 115.457 56.0792C117.34 54.6074 119.47 53.7072 121.847 53.3785L140.866 50.7489C143.244 50.4202 145.505 50.7132 147.651 51.628C149.796 52.5428 151.6 53.9086 153.063 55.7254C154.526 57.5422 155.421 59.6393 155.75 62.0166L156.996 71.0309ZM147.018 110.57C147.301 112.617 146.816 114.468 145.564 116.122C144.312 117.775 142.663 118.744 140.615 119.027C138.568 119.31 136.685 118.83 134.965 117.587C133.311 116.335 132.343 114.685 132.06 112.638C131.777 110.591 132.261 108.741 133.513 107.087C134.831 105.424 136.514 104.451 138.561 104.168C140.608 103.885 142.459 104.369 144.112 105.621C145.766 106.873 146.734 108.523 147.018 110.57Z" fill="#DE7F7F"/>
<path d="M30.6726 111.009C30.8461 112.264 30.5299 113.384 29.7241 114.37C28.9843 115.348 27.987 115.923 26.7323 116.096L24.0577 116.466C22.803 116.64 21.654 116.361 20.6108 115.63C19.6336 114.891 19.0582 113.893 18.8848 112.639L13.4064 73.0156C13.2238 71.6948 13.5024 70.5458 14.2422 69.5686C15.048 68.5823 16.0783 68.0024 17.333 67.8289L20.0076 67.4591C21.2623 67.2856 22.3783 67.5688 23.3555 68.3086C24.3987 69.0393 25.0116 70.065 25.1942 71.3858L30.6726 111.009ZM34.3804 126.144C34.6635 128.191 34.146 130.046 32.828 131.709C31.576 133.362 29.9594 134.326 27.9783 134.6C25.9311 134.883 24.0476 134.403 22.3279 133.16C20.6741 131.908 19.7058 130.259 19.4227 128.212C19.1397 126.165 19.6241 124.314 20.8761 122.66C22.1941 120.997 23.8767 120.025 25.9239 119.741C27.905 119.468 29.7225 119.957 31.3762 121.209C33.096 122.451 34.0974 124.096 34.3804 126.144ZM99.3088 97.481C99.7197 100.453 99.0146 103.141 97.1936 105.547C95.3634 107.886 92.9294 109.266 89.8916 109.686L81.5708 110.836C80.184 111.028 78.8643 110.975 77.6117 110.677C76.7918 110.588 76.0324 110.693 75.3334 110.992C74.2746 111.609 73.0188 112.019 71.566 112.22L66.9103 112.863C63.8725 113.283 61.1509 112.583 58.7455 110.762C56.331 108.875 54.9137 106.412 54.4937 103.374L52.6721 90.1997C52.3891 88.1525 52.6287 86.2349 53.391 84.447C54.1533 82.6591 55.2915 81.1557 56.8055 79.9369C58.3103 78.652 60.0534 77.8726 62.0345 77.5987L66.6902 76.955C67.3506 76.8637 68.0247 76.8714 68.7125 76.9782C69.3911 77.019 70.0128 77.1349 70.5777 77.326C71.4636 77.4055 72.2469 77.2299 72.9277 76.7992C73.5607 76.5098 74.1982 76.2534 74.8403 76.03C75.5394 75.7315 76.2521 75.532 76.9785 75.4315C78.2332 75.2581 79.3208 75.5788 80.2411 76.3938C81.2182 77.1336 81.7936 78.1308 81.9671 79.3856L82.3506 82.1592C82.6245 84.1403 81.9532 85.6128 80.3366 86.5766C79.665 87.0733 79.3839 87.7179 79.4935 88.5103L80.7672 97.7227C80.8768 98.5152 81.3608 98.852 82.2193 98.7333L86.0826 98.1992C86.9411 98.0805 87.3155 97.6249 87.206 96.8325L83.782 72.068C83.6541 71.1435 83.128 70.7452 82.2034 70.873L49.0191 75.4611C48.4248 75.5433 48.0559 75.7962 47.9126 76.2198C47.8353 76.6343 47.8058 76.9076 47.824 77.0397L53.4531 117.752C53.4987 118.083 53.6434 118.399 53.8872 118.702C54.1879 118.929 54.5693 119.011 55.0316 118.947L88.2159 114.359C89.5367 114.177 90.6857 114.455 91.6629 115.195C92.6401 115.935 93.22 116.965 93.4026 118.286L93.7587 120.861C93.9322 122.116 93.6536 123.265 92.9229 124.308C92.1831 125.286 91.1528 125.865 89.8321 126.048L56.6477 130.636C54.2043 130.974 51.9099 130.686 49.7643 129.771C47.6188 128.856 45.8148 127.49 44.3522 125.673C42.8896 123.857 41.9939 121.76 41.6652 119.382L36.0362 78.6695C35.6983 76.2261 35.9868 73.9316 36.9016 71.7861C37.8164 69.6406 39.1821 67.8365 40.9989 66.3739C42.8157 64.9113 44.9459 64.0111 47.3893 63.6733L80.5736 59.0851C83.017 58.7473 85.3115 59.0358 87.457 59.9505C89.6025 60.8653 91.4066 62.2311 92.8692 64.0479C94.3318 65.8647 95.232 67.9948 95.5698 70.4382L99.3088 97.481ZM68.9793 99.3525L67.7193 90.2392C67.6006 89.3807 67.112 89.0108 66.2535 89.1295L65.7582 89.198C64.8997 89.3167 64.5298 89.8053 64.6485 90.6638L65.9086 99.7771C66.0181 100.57 66.5022 100.906 67.3607 100.788L67.8559 100.719C68.7144 100.601 69.0889 100.145 68.9793 99.3525ZM150.062 71.9896C150.446 74.7632 150.005 77.4153 148.739 79.9457C147.465 82.4102 145.604 84.2827 143.156 85.5634L136.124 89.4632C135.992 89.4815 135.841 89.6034 135.67 89.8289C135.593 90.2434 135.554 90.4506 135.554 90.4506L136.376 96.3941C136.549 97.6488 136.233 98.7693 135.427 99.7557C134.687 100.733 133.69 101.308 132.435 101.482L129.761 101.851C128.506 102.025 127.357 101.746 126.314 101.016C125.337 100.276 124.761 99.2786 124.588 98.0239L123.739 91.8823C123.392 89.3729 123.827 86.9235 125.045 84.5342C126.328 82.1358 128.066 80.3476 130.259 79.1695L137.489 75.2422C138.122 74.9528 138.384 74.4119 138.274 73.6194L137.028 64.6052C136.982 64.275 136.809 63.9961 136.509 63.7684C136.199 63.4748 135.879 63.3508 135.549 63.3964L116.529 66.026C116.199 66.0717 115.892 66.2824 115.607 66.6583C115.38 66.959 115.289 67.2744 115.334 67.6046L116.334 74.8358C116.508 76.0905 116.191 77.2111 115.386 78.1974C114.637 79.1085 113.668 79.6463 112.479 79.8106L109.706 80.1941C108.451 80.3676 107.306 80.122 106.272 79.4574C105.295 78.7176 104.72 77.7203 104.546 76.4656L103.547 69.2344C103.218 66.857 103.511 64.5956 104.426 62.4501C105.34 60.3046 106.706 58.5005 108.523 57.0379C110.406 55.5662 112.536 54.6659 114.913 54.3372L133.932 51.7076C136.31 51.3789 138.571 51.6719 140.717 52.5867C142.862 53.5015 144.666 54.8673 146.129 56.6841C147.592 58.5009 148.487 60.598 148.816 62.9754L150.062 71.9896ZM140.083 111.529C140.367 113.576 139.882 115.427 138.63 117.08C137.378 118.734 135.729 119.702 133.681 119.985C131.634 120.268 129.751 119.789 128.031 118.546C126.377 117.294 125.409 115.644 125.126 113.597C124.843 111.55 125.327 109.699 126.579 108.046C127.897 106.383 129.58 105.41 131.627 105.127C133.674 104.844 135.525 105.328 137.178 106.58C138.832 107.832 139.8 109.482 140.083 111.529Z" fill="#F5A1A1"/>
</svg>
