<svg width="505" height="642" viewBox="0 0 505 642" fill="none" xmlns="http://www.w3.org/2000/svg">
<path d="M47.7321 633.061C47.7321 637.479 51.3138 641.061 55.7321 641.061C60.1503 641.061 63.7321 637.479 63.7321 633.061C63.7321 628.643 60.1503 625.061 55.7321 625.061C51.3138 625.061 47.7321 628.643 47.7321 633.061Z" fill="#DAF4B9"/>
<circle r="8" transform="matrix(-1 0 0 1 442 526)" fill="#DAF4B9"/>
<circle r="8" transform="matrix(-1 0 0 1 422 107)" fill="#DAF4B9"/>
<path d="M87 633H290.5L419.5 544" stroke="#DAF4B9" stroke-width="16" stroke-linecap="round"/>
<path d="M193 8H288.5L398.5 87" stroke="#DAF4B9" stroke-width="16" stroke-linecap="round"/>
<rect x="-47.2828" y="371.631" width="323.359" height="230.198" fill="#DAF4B9"/>
<rect width="282.205" height="282.205" transform="matrix(0.810224 0.58612 -0.810224 0.58612 276.247 270.919)" fill="#DAF4B9"/>
<rect x="504.793" y="202.463" width="233.919" height="323.359" transform="rotate(90 504.793 202.463)" fill="#DAF4B9"/>
<rect x="283.277" y="206.928" width="233.919" height="323.359" transform="rotate(90 283.277 206.928)" fill="#DAF4B9"/>
<rect width="282.205" height="282.205" transform="matrix(-0.810224 0.58612 -0.810224 -0.58612 505 202.414)" fill="#DAF4B9"/>
<rect x="276.419" y="270.919" width="323.359" height="233.919" transform="rotate(180 276.419 270.919)" fill="#DAF4B9"/>
<rect width="282.205" height="282.205" transform="matrix(-0.810224 -0.58612 0.810224 -0.58612 -47.0078 367.812)" fill="#DAF4B9"/>
<rect x="-275.657" y="436.374" width="233.919" height="323.359" transform="rotate(-90 -275.657 436.374)" fill="#DAF4B9"/>
<rect width="282.205" height="282.205" transform="matrix(0.810224 -0.58612 0.810224 0.58612 -276 436.325)" fill="#DAF4B9"/>
<rect x="409.992" y="423.224" width="23.7058" height="23.7058" rx="5" transform="rotate(-1.43185 409.992 423.224)" fill="#9F4A4A"/>
<rect x="392.322" y="436.67" width="60" height="29" rx="5" transform="rotate(-1.43185 392.322 436.67)" fill="#BD5959"/>
<rect x="383.5" y="443.893" width="39.2524" height="22" rx="5" transform="rotate(-1.43185 383.5 443.893)" fill="#BD5959"/>
<rect x="399.495" y="443.493" width="60" height="22" rx="5" transform="rotate(-1.43185 399.495 443.493)" fill="#CD5F5F"/>
<rect x="302.863" y="435.459" width="26.767" height="26.767" rx="5" transform="rotate(-3.82094 302.863 435.459)" fill="#9F4A4A"/>
<rect x="270.814" y="437.6" width="26.767" height="26.767" rx="5" transform="rotate(-3.82094 270.814 437.6)" fill="#9F4A4A"/>
<rect x="238.765" y="439.74" width="26.767" height="26.767" rx="5" transform="rotate(-3.82094 238.765 439.74)" fill="#9F4A4A"/>
<rect x="206.716" y="441.881" width="26.767" height="26.767" rx="5" transform="rotate(-3.82094 206.716 441.881)" fill="#9F4A4A"/>
<rect x="174.667" y="444.021" width="26.767" height="26.767" rx="5" transform="rotate(-3.82094 174.667 444.021)" fill="#9F4A4A"/>
<rect x="142.618" y="446.162" width="26.767" height="26.767" rx="5" transform="rotate(-3.82094 142.618 446.162)" fill="#9F4A4A"/>
<rect x="110.569" y="448.302" width="26.767" height="26.767" rx="5" transform="rotate(-3.82094 110.569 448.302)" fill="#9F4A4A"/>
<rect x="78.5197" y="450.443" width="26.767" height="26.767" rx="5" transform="rotate(-3.82094 78.5197 450.443)" fill="#9F4A4A"/>
<rect x="46.4707" y="452.583" width="26.767" height="26.767" rx="5" transform="rotate(-3.82094 46.4707 452.583)" fill="#9F4A4A"/>
<rect x="14.4217" y="454.724" width="26.767" height="26.767" rx="5" transform="rotate(-3.82094 14.4217 454.724)" fill="#9F4A4A"/>
<rect x="319.512" y="443.737" width="26.767" height="26.767" rx="5" transform="rotate(-3.82094 319.512 443.737)" fill="#BD5959"/>
<rect x="287.463" y="445.877" width="26.767" height="26.767" rx="5" transform="rotate(-3.82094 287.463 445.877)" fill="#BD5959"/>
<rect x="255.414" y="448.018" width="26.767" height="26.767" rx="5" transform="rotate(-3.82094 255.414 448.018)" fill="#BD5959"/>
<rect x="223.365" y="450.158" width="26.767" height="26.767" rx="5" transform="rotate(-3.82094 223.365 450.158)" fill="#BD5959"/>
<rect x="191.316" y="452.299" width="26.767" height="26.767" rx="5" transform="rotate(-3.82094 191.316 452.299)" fill="#BD5959"/>
<rect x="159.267" y="454.439" width="26.767" height="26.767" rx="5" transform="rotate(-3.82094 159.267 454.439)" fill="#BD5959"/>
<rect x="127.218" y="456.579" width="26.767" height="26.767" rx="5" transform="rotate(-3.82094 127.218 456.579)" fill="#BD5959"/>
<rect x="95.1685" y="458.72" width="26.767" height="26.767" rx="5" transform="rotate(-3.82094 95.1685 458.72)" fill="#BD5959"/>
<rect x="63.1194" y="460.86" width="26.767" height="26.767" rx="5" transform="rotate(-3.82094 63.1194 460.86)" fill="#BD5959"/>
<rect x="31.0704" y="463.001" width="26.767" height="26.767" rx="5" transform="rotate(-3.82094 31.0704 463.001)" fill="#BD5959"/>
<rect x="336.072" y="450.679" width="26.767" height="26.767" rx="5" transform="rotate(-3.82094 336.072 450.679)" fill="#CD5F5F"/>
<rect x="304.023" y="452.819" width="26.767" height="26.767" rx="5" transform="rotate(-3.82094 304.023 452.819)" fill="#CD5F5F"/>
<rect x="271.973" y="454.96" width="26.767" height="26.767" rx="5" transform="rotate(-3.82094 271.973 454.96)" fill="#CD5F5F"/>
<rect x="239.924" y="457.1" width="26.767" height="26.767" rx="5" transform="rotate(-3.82094 239.924 457.1)" fill="#CD5F5F"/>
<rect x="207.875" y="459.24" width="26.767" height="26.767" rx="5" transform="rotate(-3.82094 207.875 459.24)" fill="#CD5F5F"/>
<rect x="175.826" y="461.381" width="26.767" height="26.767" rx="5" transform="rotate(-3.82094 175.826 461.381)" fill="#CD5F5F"/>
<rect x="143.777" y="463.521" width="26.767" height="26.767" rx="5" transform="rotate(-3.82094 143.777 463.521)" fill="#CD5F5F"/>
<rect x="111.728" y="465.662" width="26.767" height="26.767" rx="5" transform="rotate(-3.82094 111.728 465.662)" fill="#CD5F5F"/>
<rect x="79.6792" y="467.802" width="26.767" height="26.767" rx="5" transform="rotate(-3.82094 79.6792 467.802)" fill="#CD5F5F"/>
<rect x="47.6301" y="469.943" width="26.767" height="26.767" rx="5" transform="rotate(-3.82094 47.6301 469.943)" fill="#CD5F5F"/>
<rect x="3.20831" y="487.664" width="48.1807" height="24.0903" rx="5" transform="rotate(-3.82094 3.20831 487.664)" fill="#9F4A4A"/>
<rect width="45.2927" height="25.3083" rx="5" transform="matrix(0.950085 0.311991 -0.366501 0.930418 11.9955 472.865)" fill="#9F4A4A"/>
<rect x="40.5989" y="485.167" width="331.911" height="24.0903" rx="5" transform="rotate(-3.82094 40.5989 485.167)" fill="#BD5959"/>
<rect x="93.9443" y="349.983" width="201" height="18" transform="rotate(-3.27754 93.9443 349.983)" fill="#A95050"/>
<rect x="147.856" y="346.895" width="153" height="18" transform="rotate(-3.27754 147.856 346.895)" fill="#BD5959"/>
<rect x="16.103" y="372.47" width="375" height="69" rx="10" transform="rotate(-3.27754 16.103 372.47)" fill="#9F4A4A"/>
<rect x="103.959" y="367.439" width="287" height="69" rx="10" transform="rotate(-3.27754 103.959 367.439)" fill="#CD5F5F"/>
<rect x="129.094" y="404.061" width="78" height="10" rx="5" transform="rotate(-3.27754 129.094 404.061)" fill="#9F4A4A"/>
<rect x="128.122" y="387.089" width="78" height="10" rx="5" transform="rotate(-3.27754 128.122 387.089)" fill="#9F4A4A"/>
<rect x="91.1539" y="388.708" width="7" height="10" rx="3.5" transform="rotate(-3.27754 91.1539 388.708)" fill="#6B3333"/>
<rect x="78.1752" y="389.452" width="7" height="10" rx="3.5" transform="rotate(-3.27754 78.1752 389.452)" fill="#6B3333"/>
<rect x="362.738" y="373.654" width="10" height="10" rx="5" transform="rotate(-3.27754 362.738 373.654)" fill="#9F4A4A"/>
<rect x="74.2961" y="391.677" width="11" height="6" rx="1" transform="rotate(-3.27754 74.2961 391.677)" fill="#DEAEAE"/>
<rect x="61" y="390.429" width="25" height="10" rx="2" transform="rotate(-3.27754 61 390.429)" fill="#6B3333"/>
<rect x="63.9951" y="390.258" width="22" height="10" rx="2" transform="rotate(-3.27754 63.9951 390.258)" fill="#CD5F5F"/>
<rect x="3.86792" y="158.82" width="375" height="177" rx="20" transform="rotate(-3.27754 3.86792 158.82)" fill="#8D4242"/>
<rect x="-3.89087" y="177.16" width="121.351" height="70" rx="20" transform="rotate(-50.7035 -3.89087 177.16)" fill="#8D4242"/>
<rect x="20.6978" y="284.827" width="95.0717" height="48.6123" rx="20" transform="rotate(13.3741 20.6978 284.827)" fill="#8D4242"/>
<rect x="55.1187" y="91.7798" width="320" height="260" rx="20" transform="rotate(-3.27754 55.1187 91.7798)" fill="#9F4A4A"/>
<rect x="88.0648" y="89.8931" width="287" height="260" rx="20" transform="rotate(-3.27754 88.0648 89.8931)" fill="#CD5F5F"/>
<rect x="112.342" y="111.54" width="240" height="200" rx="20" transform="rotate(-3.27754 112.342 111.54)" fill="#282B24"/>
<rect x="140.974" y="234.372" width="9" height="9" rx="4.5" transform="rotate(-3.27754 140.974 234.372)" fill="#94E72B"/>
<rect x="231.148" y="104.737" width="2" height="200" transform="rotate(-3.27754 231.148 104.737)" fill="#94E72B"/>
<rect x="149.445" y="224.872" width="9" height="9" rx="4.5" transform="rotate(-3.27754 149.445 224.872)" fill="#94E72B"/>
<rect x="145.5" y="155.985" width="44" height="9" rx="4.5" transform="rotate(-3.27754 145.5 155.985)" fill="#94E72B"/>
<rect x="135" y="134.516" width="44" height="9" rx="4.5" transform="rotate(-3.27754 135 134.516)" fill="#94E72B"/>
<rect x="146.186" y="167.966" width="44" height="9" rx="4.5" transform="rotate(-3.27754 146.186 167.966)" fill="#94E72B"/>
<rect x="146.929" y="180.944" width="44" height="9" rx="4.5" transform="rotate(-3.27754 146.929 180.944)" fill="#94E72B"/>
<rect x="157.172" y="202.394" width="35" height="9" rx="4.5" transform="rotate(-3.27754 157.172 202.394)" fill="#94E72B"/>
<rect x="135" y="122.001" width="35" height="9" rx="4.5" transform="rotate(-3.27754 135 122.001)" fill="#94E72B"/>
<rect x="157.916" y="215.373" width="35" height="9" rx="4.5" transform="rotate(-3.27754 157.916 215.373)" fill="#94E72B"/>
<rect x="141.717" y="247.351" width="72" height="9" rx="4.5" transform="rotate(-3.27754 141.717 247.351)" fill="#94E72B"/>
<rect x="142.461" y="260.33" width="72" height="9" rx="4.5" transform="rotate(-3.27754 142.461 260.33)" fill="#94E72B"/>
<rect x="143.204" y="273.308" width="40" height="9" rx="4.5" transform="rotate(-3.27754 143.204 273.308)" fill="#94E72B"/>
<rect x="136" y="147.515" width="9" height="9" rx="4.5" transform="rotate(-3.27754 136 147.515)" fill="#94E72B"/>
<rect x="249" y="111.515" width="9" height="9" rx="4.5" transform="rotate(-3.27754 249 111.515)" fill="#94E72B"/>
<rect x="250.772" y="142.464" width="9" height="9" rx="4.5" transform="rotate(-3.27754 250.772 142.464)" fill="#94E72B"/>
<rect x="258.5" y="119.985" width="26" height="9" rx="4.5" transform="rotate(-3.27754 258.5 119.985)" fill="#94E72B"/>
<rect x="259.243" y="132.964" width="41" height="9" rx="4.5" transform="rotate(-3.27754 259.243 132.964)" fill="#94E72B"/>
<rect x="260" y="281.515" width="9" height="9" rx="4.5" transform="rotate(-3.27754 260 281.515)" fill="#94E72B"/>
<rect x="269.5" y="289.985" width="32.9083" height="9" rx="4.5" transform="rotate(-3.27754 269.5 289.985)" fill="#94E72B"/>
<rect x="251.516" y="155.443" width="9" height="9" rx="4.5" transform="rotate(-3.27754 251.516 155.443)" fill="#94E72B"/>
<rect x="254.774" y="212.349" width="9" height="9" rx="4.5" transform="rotate(-3.27754 254.774 212.349)" fill="#94E72B"/>
<rect x="261.015" y="163.913" width="61" height="9" rx="4.5" transform="rotate(-3.27754 261.015 163.913)" fill="#94E72B"/>
<rect x="261.759" y="176.892" width="47" height="9" rx="4.5" transform="rotate(-3.27754 261.759 176.892)" fill="#94E72B"/>
<rect x="262.502" y="189.871" width="57" height="9" rx="4.5" transform="rotate(-3.27754 262.502 189.871)" fill="#94E72B"/>
<rect x="263.245" y="202.849" width="42" height="9" rx="4.5" transform="rotate(-3.27754 263.245 202.849)" fill="#94E72B"/>
<rect x="255.518" y="225.328" width="9" height="9" rx="4.5" transform="rotate(-3.27754 255.518 225.328)" fill="#94E72B"/>
<rect x="257.976" y="268.258" width="9" height="9" rx="4.5" transform="rotate(-3.27754 257.976 268.258)" fill="#94E72B"/>
<rect x="265.704" y="245.779" width="37" height="9" rx="4.5" transform="rotate(-3.27754 265.704 245.779)" fill="#94E72B"/>
<rect x="265.018" y="233.799" width="49" height="9" rx="4.5" transform="rotate(-3.27754 265.018 233.799)" fill="#94E72B"/>
<rect x="266.447" y="258.758" width="56" height="9" rx="4.5" transform="rotate(-3.27754 266.447 258.758)" fill="#94E72B"/>
<rect x="147.672" y="193.923" width="9" height="9" rx="4.5" transform="rotate(-3.27754 147.672 193.923)" fill="#94E72B"/>
</svg>
