<svg width="363" height="239" viewBox="0 0 363 239" fill="none" xmlns="http://www.w3.org/2000/svg">
<path d="M105.694 171.8C105.694 174.333 104.76 176.533 102.894 178.4C101.16 180.133 99.0271 181 96.4938 181H40.8938C36.0938 181 31.6271 179.8 27.4938 177.4C23.4938 175 20.2938 171.8 17.8938 167.8C15.4938 163.8 14.2938 159.4 14.2938 154.6V72.4C14.2938 67.4667 15.4938 63 17.8938 59C20.2938 55 23.4938 51.8 27.4938 49.4C31.6271 47 36.0938 45.8 40.8938 45.8H79.2938C84.0938 45.8 88.4938 47 92.4938 49.4C96.4938 51.8 99.6938 55 102.094 59C104.494 63 105.694 67.4667 105.694 72.4V171.8ZM81.8938 138.4V72.4C81.8938 70.5333 81.0271 69.6 79.2938 69.6H40.8938C40.2271 69.6 39.5604 69.8667 38.8938 70.4C38.3604 70.9333 38.0938 71.6 38.0938 72.4V154.6C38.0938 155.267 38.3604 155.933 38.8938 156.6C39.5604 157.133 40.2271 157.4 40.8938 157.4H62.6938C63.0938 157.4 63.3604 157.2 63.4938 156.8C63.7604 156.267 63.6938 155.8 63.2938 155.4L53.4938 145.6C51.7604 143.867 50.8938 141.733 50.8938 139.2V131.6C50.8938 129.6 51.4271 127.867 52.4938 126.4C53.5604 124.8 54.9604 123.667 56.6938 123C58.4271 122.333 60.1604 122.2 61.8938 122.6C63.7604 122.867 65.2938 123.733 66.4938 125.2L80.0938 139.2C80.4938 139.467 80.8938 139.533 81.2938 139.4C81.6938 139.267 81.8938 138.933 81.8938 138.4Z" fill="#F0E688"/>
<path d="M170.639 165.32C170.639 169.707 169.099 173.44 166.019 176.52C163.033 179.507 159.393 181 155.099 181H135.639C131.346 181 127.659 179.507 124.579 176.52C121.499 173.44 119.959 169.707 119.959 165.32V115.06C119.959 113.193 120.566 111.653 121.779 110.44C123.086 109.133 124.626 108.48 126.399 108.48H130.319C132.093 108.48 133.586 109.133 134.799 110.44C136.013 111.653 136.619 113.193 136.619 115.06V162.66C136.619 163.127 136.806 163.547 137.179 163.92C137.646 164.293 138.113 164.48 138.579 164.48H152.159C152.626 164.48 153.046 164.293 153.419 163.92C153.886 163.547 154.119 163.127 154.119 162.66V115.06C154.119 113.193 154.726 111.653 155.939 110.44C157.153 109.133 158.646 108.48 160.419 108.48H164.339C166.113 108.48 167.606 109.133 168.819 110.44C170.033 111.653 170.639 113.193 170.639 115.06V165.32ZM232.71 165.32C232.71 169.707 231.17 173.44 228.09 176.52C225.103 179.507 221.463 181 217.17 181H197.71C193.416 181 189.73 179.507 186.65 176.52C183.57 173.44 182.03 169.707 182.03 165.32V115.06C182.03 113.193 182.636 111.653 183.85 110.44C185.156 109.133 186.696 108.48 188.47 108.48H192.39C194.163 108.48 195.656 109.133 196.87 110.44C198.083 111.653 198.69 113.193 198.69 115.06V162.66C198.69 163.127 198.876 163.547 199.25 163.92C199.716 164.293 200.183 164.48 200.65 164.48H214.23C214.696 164.48 215.116 164.293 215.49 163.92C215.956 163.547 216.19 163.127 216.19 162.66V115.06C216.19 113.193 216.796 111.653 218.01 110.44C219.223 109.133 220.716 108.48 222.49 108.48H226.41C228.183 108.48 229.676 109.133 230.89 110.44C232.103 111.653 232.71 113.193 232.71 115.06V165.32ZM294.78 165.32C294.78 169.707 293.24 173.44 290.16 176.52C287.173 179.507 283.533 181 279.24 181H259.78C255.487 181 251.8 179.507 248.72 176.52C245.64 173.44 244.1 169.707 244.1 165.32V92.8C244.1 90.9333 244.707 89.3933 245.92 88.18C247.227 86.9667 248.767 86.36 250.54 86.36H254.46C256.233 86.36 257.727 86.9667 258.94 88.18C260.153 89.3933 260.76 90.9333 260.76 92.8V106.8C260.76 107.267 260.947 107.687 261.32 108.06C261.787 108.34 262.253 108.48 262.72 108.48H279.24C282.133 108.48 284.747 109.18 287.08 110.58C289.413 111.98 291.28 113.893 292.68 116.32C294.08 118.653 294.78 121.267 294.78 124.16V165.32ZM278.26 162.66V127.1C278.26 125.793 277.607 125.14 276.3 125.14H262.72C262.253 125.14 261.787 125.327 261.32 125.7C260.947 126.073 260.76 126.54 260.76 127.1V162.66C260.76 163.127 260.947 163.547 261.32 163.92C261.787 164.293 262.253 164.48 262.72 164.48H276.3C277.607 164.48 278.26 163.873 278.26 162.66ZM356.85 139.42C356.85 142.22 356.15 144.833 354.75 147.26C353.35 149.593 351.484 151.507 349.15 153C346.817 154.4 344.204 155.1 341.31 155.1H324.79C324.324 155.1 323.857 155.287 323.39 155.66C323.017 155.94 322.83 156.313 322.83 156.78V162.66C322.83 163.127 323.017 163.547 323.39 163.92C323.857 164.293 324.324 164.48 324.79 164.48H341.31C343.084 164.48 344.577 165.087 345.79 166.3C347.097 167.513 347.75 169.053 347.75 170.92V174.56C347.75 176.333 347.097 177.873 345.79 179.18C344.577 180.393 343.084 181 341.31 181H321.85C317.557 181 313.87 179.507 310.79 176.52C307.71 173.44 306.17 169.707 306.17 165.32V124.16C306.17 121.267 306.87 118.653 308.27 116.32C309.764 113.987 311.677 112.12 314.01 110.72C316.344 109.227 318.957 108.48 321.85 108.48H341.31C344.204 108.48 346.817 109.227 349.15 110.72C351.484 112.12 353.35 113.987 354.75 116.32C356.15 118.653 356.85 121.267 356.85 124.16V139.42ZM340.33 136.62V127.1C340.33 126.54 340.097 126.073 339.63 125.7C339.257 125.327 338.837 125.14 338.37 125.14H324.79C324.324 125.14 323.857 125.327 323.39 125.7C323.017 126.073 322.83 126.54 322.83 127.1V136.62C322.83 136.993 323.017 137.367 323.39 137.74C323.857 138.113 324.324 138.3 324.79 138.3H338.37C338.837 138.3 339.257 138.113 339.63 137.74C340.097 137.367 340.33 136.993 340.33 136.62Z" fill="#F0E688"/>
<path d="M99.6938 171.8C99.6938 174.333 98.7604 176.533 96.8938 178.4C95.1604 180.133 93.0271 181 90.4938 181H34.8938C30.0938 181 25.6271 179.8 21.4938 177.4C17.4938 175 14.2938 171.8 11.8938 167.8C9.49375 163.8 8.29375 159.4 8.29375 154.6V72.4C8.29375 67.4667 9.49375 63 11.8938 59C14.2938 55 17.4938 51.8 21.4938 49.4C25.6271 47 30.0938 45.8 34.8938 45.8H73.2938C78.0938 45.8 82.4938 47 86.4938 49.4C90.4938 51.8 93.6938 55 96.0938 59C98.4938 63 99.6938 67.4667 99.6938 72.4V171.8ZM75.8938 138.4V72.4C75.8938 70.5333 75.0271 69.6 73.2938 69.6H34.8938C34.2271 69.6 33.5604 69.8667 32.8938 70.4C32.3604 70.9333 32.0938 71.6 32.0938 72.4V154.6C32.0938 155.267 32.3604 155.933 32.8938 156.6C33.5604 157.133 34.2271 157.4 34.8938 157.4H56.6938C57.0938 157.4 57.3604 157.2 57.4938 156.8C57.7604 156.267 57.6938 155.8 57.2938 155.4L47.4938 145.6C45.7604 143.867 44.8938 141.733 44.8938 139.2V131.6C44.8938 129.6 45.4271 127.867 46.4938 126.4C47.5604 124.8 48.9604 123.667 50.6938 123C52.4271 122.333 54.1604 122.2 55.8938 122.6C57.7604 122.867 59.2938 123.733 60.4938 125.2L74.0938 139.2C74.4938 139.467 74.8938 139.533 75.2938 139.4C75.6938 139.267 75.8938 138.933 75.8938 138.4Z" fill="#F5A1A1"/>
<path d="M164.639 165.32C164.639 169.707 163.099 173.44 160.019 176.52C157.033 179.507 153.393 181 149.099 181H129.639C125.346 181 121.659 179.507 118.579 176.52C115.499 173.44 113.959 169.707 113.959 165.32V115.06C113.959 113.193 114.566 111.653 115.779 110.44C117.086 109.133 118.626 108.48 120.399 108.48H124.319C126.093 108.48 127.586 109.133 128.799 110.44C130.013 111.653 130.619 113.193 130.619 115.06V162.66C130.619 163.127 130.806 163.547 131.179 163.92C131.646 164.293 132.113 164.48 132.579 164.48H146.159C146.626 164.48 147.046 164.293 147.419 163.92C147.886 163.547 148.119 163.127 148.119 162.66V115.06C148.119 113.193 148.726 111.653 149.939 110.44C151.153 109.133 152.646 108.48 154.419 108.48H158.339C160.113 108.48 161.606 109.133 162.819 110.44C164.033 111.653 164.639 113.193 164.639 115.06V165.32ZM226.71 165.32C226.71 169.707 225.17 173.44 222.09 176.52C219.103 179.507 215.463 181 211.17 181H191.71C187.416 181 183.73 179.507 180.65 176.52C177.57 173.44 176.03 169.707 176.03 165.32V115.06C176.03 113.193 176.636 111.653 177.85 110.44C179.156 109.133 180.696 108.48 182.47 108.48H186.39C188.163 108.48 189.656 109.133 190.87 110.44C192.083 111.653 192.69 113.193 192.69 115.06V162.66C192.69 163.127 192.876 163.547 193.25 163.92C193.716 164.293 194.183 164.48 194.65 164.48H208.23C208.696 164.48 209.116 164.293 209.49 163.92C209.956 163.547 210.19 163.127 210.19 162.66V115.06C210.19 113.193 210.796 111.653 212.01 110.44C213.223 109.133 214.716 108.48 216.49 108.48H220.41C222.183 108.48 223.676 109.133 224.89 110.44C226.103 111.653 226.71 113.193 226.71 115.06V165.32ZM288.78 165.32C288.78 169.707 287.24 173.44 284.16 176.52C281.173 179.507 277.533 181 273.24 181H253.78C249.487 181 245.8 179.507 242.72 176.52C239.64 173.44 238.1 169.707 238.1 165.32V92.8C238.1 90.9333 238.707 89.3933 239.92 88.18C241.227 86.9667 242.767 86.36 244.54 86.36H248.46C250.233 86.36 251.727 86.9667 252.94 88.18C254.153 89.3933 254.76 90.9333 254.76 92.8V106.8C254.76 107.267 254.947 107.687 255.32 108.06C255.787 108.34 256.253 108.48 256.72 108.48H273.24C276.133 108.48 278.747 109.18 281.08 110.58C283.413 111.98 285.28 113.893 286.68 116.32C288.08 118.653 288.78 121.267 288.78 124.16V165.32ZM272.26 162.66V127.1C272.26 125.793 271.607 125.14 270.3 125.14H256.72C256.253 125.14 255.787 125.327 255.32 125.7C254.947 126.073 254.76 126.54 254.76 127.1V162.66C254.76 163.127 254.947 163.547 255.32 163.92C255.787 164.293 256.253 164.48 256.72 164.48H270.3C271.607 164.48 272.26 163.873 272.26 162.66ZM350.85 139.42C350.85 142.22 350.15 144.833 348.75 147.26C347.35 149.593 345.484 151.507 343.15 153C340.817 154.4 338.204 155.1 335.31 155.1H318.79C318.324 155.1 317.857 155.287 317.39 155.66C317.017 155.94 316.83 156.313 316.83 156.78V162.66C316.83 163.127 317.017 163.547 317.39 163.92C317.857 164.293 318.324 164.48 318.79 164.48H335.31C337.084 164.48 338.577 165.087 339.79 166.3C341.097 167.513 341.75 169.053 341.75 170.92V174.56C341.75 176.333 341.097 177.873 339.79 179.18C338.577 180.393 337.084 181 335.31 181H315.85C311.557 181 307.87 179.507 304.79 176.52C301.71 173.44 300.17 169.707 300.17 165.32V124.16C300.17 121.267 300.87 118.653 302.27 116.32C303.764 113.987 305.677 112.12 308.01 110.72C310.344 109.227 312.957 108.48 315.85 108.48H335.31C338.204 108.48 340.817 109.227 343.15 110.72C345.484 112.12 347.35 113.987 348.75 116.32C350.15 118.653 350.85 121.267 350.85 124.16V139.42ZM334.33 136.62V127.1C334.33 126.54 334.097 126.073 333.63 125.7C333.257 125.327 332.837 125.14 332.37 125.14H318.79C318.324 125.14 317.857 125.327 317.39 125.7C317.017 126.073 316.83 126.54 316.83 127.1V136.62C316.83 136.993 317.017 137.367 317.39 137.74C317.857 138.113 318.324 138.3 318.79 138.3H332.37C332.837 138.3 333.257 138.113 333.63 137.74C334.097 137.367 334.33 136.993 334.33 136.62Z" fill="#F5A1A1"/>
</svg>
