<svg width="529" height="732" viewBox="0 0 529 732" fill="none" xmlns="http://www.w3.org/2000/svg">
<path d="M472.805 62.9661L301.002 162.394" stroke="#B7CBFE" stroke-width="16" stroke-linecap="round"/>
<path d="M531.002 703.954L195.002 506.954" stroke="#B7CBFE" stroke-width="16" stroke-linecap="round"/>
<path d="M276.002 171.966C276.002 176.384 279.583 179.966 284.002 179.966C288.42 179.966 292.002 176.384 292.002 171.966C292.002 167.548 288.42 163.966 284.002 163.966C279.583 163.966 276.002 167.548 276.002 171.966Z" fill="#B7CBFE"/>
<path d="M482.002 51.9662C482.002 56.3845 485.583 59.9662 490.002 59.9662C494.42 59.9662 498.002 56.3845 498.002 51.9662C498.002 47.5479 494.42 43.9662 490.002 43.9662C485.583 43.9662 482.002 47.5479 482.002 51.9662Z" fill="#B7CBFE"/>
<path d="M51.002 383.321C37.6687 375.623 37.6686 356.378 51.002 348.68L540.002 66.3558C553.335 58.6578 570.002 68.2803 570.002 83.6763L570.002 648.325C570.002 663.721 553.335 673.343 540.002 665.645L51.002 383.321Z" fill="#B7CBFE"/>
<rect x="261.157" y="262.736" width="127.662" height="128.027" rx="30" transform="rotate(-29.4511 261.157 262.736)" fill="#F9E5B2"/>
<path d="M311.602 329.715C305.25 352.543 348.125 373.278 325.297 366.926C216.317 323.243 134.008 261.15 140.516 245.147C147.025 229.144 254.081 249.58 276.909 255.932C291.423 258.189 317.954 306.886 311.602 329.715Z" fill="#F9E5B2"/>
<path d="M358.555 342.779C352.203 365.607 304.78 361.217 327.609 367.569C443.489 386.452 546.04 375.796 548.733 358.731C551.425 341.667 449.2 303.871 426.371 297.519C412.778 291.955 364.907 319.951 358.555 342.779Z" fill="#F9E5B2"/>
<path d="M425.713 297.336C425.713 297.336 390.081 293.211 348.99 281.777C307.899 270.344 276.909 255.932 276.909 255.932C288.342 214.84 330.922 190.798 372.013 202.232C413.104 213.665 437.146 256.244 425.713 297.336Z" fill="white"/>
<g filter="url(#filter0_f_94_19)">
<path d="M425.713 297.335C425.713 297.335 390.081 293.21 348.99 281.777C307.899 270.344 276.909 255.931 276.909 255.931C285.002 228.975 285.002 240.975 290.502 254.475C317.502 270.975 352.002 284.475 425.713 297.335Z" fill="#D9D9D9" fill-opacity="0.3"/>
</g>
<g filter="url(#filter1_f_94_19)">
<path d="M425.713 297.336C425.713 297.336 390.081 293.211 348.99 281.777C307.899 270.344 276.909 255.932 276.909 255.932C216.501 242.488 287.501 268.488 313.501 276.988C354.592 288.421 358.502 287.475 425.713 297.336Z" fill="#9F4A4A" fill-opacity="0.2"/>
</g>
<path d="M421 274.992C421 274.992 418.5 293.55 405 291.992C377.5 288.819 393 254.492 393 254.492C413 201.492 344 205.492 376.5 216.492C401 226.992 421 233.648 421 274.992Z" fill="#B2DFF9" fill-opacity="0.2"/>
<circle cx="326.002" cy="366.967" r="4" fill="#EDD9A8"/>
<rect x="315.002" y="380.205" width="16" height="4" rx="2" transform="rotate(-55.8306 315.002 380.205)" fill="#EDD9A8"/>
<circle cx="316.002" cy="381.967" r="4" fill="#EDD9A8"/>
<rect x="302.002" y="388.338" width="16" height="4" rx="2" transform="rotate(-31.5492 302.002 388.338)" fill="#EDD9A8"/>
<path d="M305.494 388.959C308.578 395.582 305.708 403.452 299.085 406.536C292.462 409.62 291.001 404.09 287.917 397.467C284.833 390.843 281.294 385.634 287.917 382.55C294.54 379.466 302.41 382.336 305.494 388.959Z" fill="#EDD9A8"/>
<path d="M294.002 394.967C297.086 401.59 295.052 405.692 295.002 407.467C292.002 406.467 291.086 404.59 288.002 397.967C284.918 391.343 283.502 388.467 284.502 385.967C286.037 386.128 290.918 388.343 294.002 394.967Z" fill="#9F4A4A"/>
<path d="M288.197 397.153C287.705 396.164 288.108 394.963 289.097 394.471L292.635 392.712L294.417 396.293L290.879 398.053C289.89 398.545 288.689 398.142 288.197 397.153V397.153Z" fill="#EDD9A8"/>
<circle cx="287.002" cy="397.967" r="4" fill="#EDD9A8"/>
<g opacity="0.6">
<path d="M294.002 394.967C297.086 401.59 295.052 405.693 295.002 407.467C292.002 406.467 291.086 404.59 288.002 397.967C284.918 391.343 283.502 388.467 284.502 385.967C286.037 386.128 290.918 388.343 294.002 394.967Z" fill="#F9E5B2"/>
<path d="M284.501 385.991C296.101 390.391 296.334 402.158 295.001 407.491C286.501 415.491 292 424.999 282.001 422.491C263.597 417.877 280 442.491 262.501 442.491C244.3 442.491 253.5 464.999 239.001 467.491C222.59 470.312 237.001 507.491 210.001 497.491C183.001 487.491 184.001 503.991 159.501 490.491C135.001 476.991 116.001 488.491 106.501 480.991C97.0006 473.491 84.0006 477.991 79.0006 459.491C74.0006 440.991 60.5006 444.491 55.0006 428.991C49.5006 413.491 39.1151 405.991 51.0006 405.991C76.5002 405.991 71.5003 392.998 89.0006 401.991C114.047 414.862 114.5 389.491 127.501 398.491C146.629 411.733 152 385.991 170.501 394.991C195.295 407.053 193 383.498 207.001 391.991C223.601 402.061 218.5 377.998 235.001 389.491C248.841 399.131 242.5 374.998 260.501 387.491C275.699 398.039 270.001 380.491 284.501 385.991Z" fill="#C1F9C0"/>
</g>
<g filter="url(#filter2_f_94_19)">
<path d="M535.001 366.948C530.448 383.166 370.137 379.587 327.001 367.474C221.137 330 136.947 262.205 141.501 245.988C227.501 287.988 229.501 290.474 327.001 325.974C413.001 347.974 429.001 350.974 535.001 366.948Z" fill="#9F4A4A" fill-opacity="0.25"/>
</g>
<path d="M105.15 201.636C106.689 198.501 111.341 199.167 111.938 202.609V202.609C112.205 204.147 113.433 205.339 114.979 205.561V205.561C118.437 206.056 119.241 210.686 116.152 212.318V212.318C114.771 213.047 114.017 214.583 114.284 216.122V216.122C114.882 219.563 110.727 221.759 108.221 219.326V219.326C107.1 218.238 105.406 217.995 104.025 218.725V218.725C100.937 220.357 97.5654 217.083 99.1047 213.948V213.948C99.7931 212.546 99.5004 210.86 98.3797 209.772V209.772C95.8736 207.34 97.9447 203.121 101.402 203.616V203.616C102.948 203.838 104.461 203.038 105.15 201.636V201.636Z" fill="#FDDA83"/>
<path d="M106.412 204.621C107.78 201.834 111.916 202.426 112.447 205.486V205.486C112.684 206.854 113.776 207.913 115.151 208.11V208.11C118.224 208.551 118.939 212.667 116.194 214.117V214.117C114.966 214.766 114.295 216.132 114.533 217.5V217.5C115.064 220.559 111.37 222.511 109.142 220.348V220.348C108.146 219.381 106.64 219.165 105.412 219.814V219.814C102.667 221.264 99.669 218.354 101.037 215.567V215.567C101.649 214.321 101.389 212.822 100.393 211.855V211.855C98.1649 209.692 100.006 205.941 103.08 206.382V206.382C104.455 206.579 105.8 205.868 106.412 204.621V204.621Z" fill="#B2DFF9"/>
<path d="M479.371 158.549C481.878 156.117 486.032 158.313 485.434 161.754V161.754C485.167 163.293 485.92 164.829 487.301 165.559V165.559C490.389 167.191 489.584 171.821 486.127 172.316V172.316C484.581 172.537 483.353 173.728 483.085 175.267V175.267C482.487 178.708 477.835 179.374 476.296 176.238V176.238C475.608 174.836 474.095 174.036 472.549 174.257V174.257C469.092 174.752 467.022 170.533 469.528 168.101V168.101C470.649 167.013 470.942 165.327 470.254 163.925V163.925C468.715 160.79 472.088 157.517 475.176 159.149V159.149C476.556 159.879 478.25 159.637 479.371 158.549V158.549Z" fill="#FDDA83"/>
<path d="M481.891 159.653C484.137 157.473 487.861 159.441 487.325 162.525V162.525C487.085 163.904 487.761 165.281 488.998 165.935V165.935C491.766 167.398 491.044 171.548 487.946 171.991V171.991C486.56 172.189 485.459 173.257 485.22 174.636V174.636C484.683 177.72 480.514 178.317 479.135 175.506V175.506C478.518 174.25 477.163 173.533 475.777 173.731V173.731C472.678 174.174 470.823 170.393 473.069 168.213V168.213C474.074 167.239 474.336 165.728 473.72 164.471V164.471C472.341 161.661 475.363 158.728 478.131 160.191V160.191C479.368 160.845 480.886 160.628 481.891 159.653V159.653Z" fill="#B2DFF9"/>
<path d="M475.943 436.833C477.083 433.532 481.782 433.618 482.8 436.958V436.958C483.255 438.452 484.621 439.483 486.183 439.512V439.512C489.675 439.576 491.045 444.071 488.183 446.072V446.072C486.902 446.966 486.344 448.584 486.799 450.078V450.078C487.818 453.419 483.966 456.111 481.179 454.007V454.007C479.932 453.066 478.221 453.035 476.941 453.93V453.93C474.078 455.931 470.328 453.099 471.467 449.798V449.798C471.977 448.322 471.478 446.685 470.231 445.744V445.744C467.444 443.64 468.977 439.198 472.469 439.261V439.261C474.031 439.29 475.434 438.31 475.943 436.833V436.833Z" fill="#FDDA83"/>
<path d="M474.14 439.878C475.15 436.951 479.317 437.027 480.22 439.989V439.989C480.624 441.315 481.836 442.229 483.221 442.254V442.254C486.318 442.311 487.533 446.297 484.994 448.072V448.072C483.859 448.865 483.364 450.3 483.767 451.625V451.625C484.671 454.588 481.255 456.975 478.783 455.109V455.109C477.677 454.275 476.16 454.247 475.024 455.041V455.041C472.486 456.815 469.159 454.304 470.17 451.376V451.376C470.622 450.067 470.18 448.615 469.074 447.781V447.781C466.602 445.915 467.962 441.975 471.059 442.032V442.032C472.444 442.057 473.687 441.188 474.14 439.878V439.878Z" fill="#B2DFF9"/>
<path d="M238.202 85.6774C238.617 82.2095 243.227 81.2984 244.93 84.3478V84.3478C245.691 85.7116 247.244 86.4298 248.777 86.127V86.127C252.203 85.4499 254.494 89.5528 252.12 92.1146V92.1146C251.059 93.2603 250.855 94.9593 251.617 96.323V96.323C253.32 99.3724 250.126 102.819 246.956 101.353V101.353C245.538 100.697 243.859 101.029 242.798 102.175V102.175C240.424 104.737 236.158 102.764 236.573 99.2961V99.2961C236.759 97.7452 235.924 96.2512 234.507 95.5956V95.5956C231.337 94.1294 231.895 89.4634 235.321 88.7862V88.7862C236.854 88.4834 238.017 87.2283 238.202 85.6774V85.6774Z" fill="#FDDA83"/>
<path d="M237.414 88.0435C237.796 84.852 242.039 84.0135 243.606 86.8198V86.8198C244.307 88.0749 245.736 88.7359 247.146 88.4572V88.4572C250.299 87.834 252.408 91.6099 250.223 93.9675V93.9675C249.246 95.0219 249.059 96.5854 249.76 97.8404V97.8404C251.327 100.647 248.387 103.819 245.47 102.47V102.47C244.165 101.866 242.621 102.172 241.644 103.226V103.226C239.459 105.583 235.534 103.768 235.915 100.577V100.577C236.086 99.1493 235.318 97.7744 234.014 97.171V97.171C231.096 95.8217 231.61 91.5276 234.763 90.9045V90.9045C236.173 90.6258 237.244 89.4707 237.414 88.0435V88.0435Z" fill="#B2DFF9"/>
<defs>
<filter id="filter0_f_94_19" x="272.909" y="235.784" width="156.804" height="65.5513" filterUnits="userSpaceOnUse" color-interpolation-filters="sRGB">
<feFlood flood-opacity="0" result="BackgroundImageFix"/>
<feBlend mode="normal" in="SourceGraphic" in2="BackgroundImageFix" result="shape"/>
<feGaussianBlur stdDeviation="2" result="effect1_foregroundBlur_94_19"/>
</filter>
<filter id="filter1_f_94_19" x="249.197" y="248.143" width="180.516" height="53.1926" filterUnits="userSpaceOnUse" color-interpolation-filters="sRGB">
<feFlood flood-opacity="0" result="BackgroundImageFix"/>
<feBlend mode="normal" in="SourceGraphic" in2="BackgroundImageFix" result="shape"/>
<feGaussianBlur stdDeviation="2" result="effect1_foregroundBlur_94_19"/>
</filter>
<filter id="filter2_f_94_19" x="137.325" y="241.988" width="401.677" height="139.878" filterUnits="userSpaceOnUse" color-interpolation-filters="sRGB">
<feFlood flood-opacity="0" result="BackgroundImageFix"/>
<feBlend mode="normal" in="SourceGraphic" in2="BackgroundImageFix" result="shape"/>
<feGaussianBlur stdDeviation="2" result="effect1_foregroundBlur_94_19"/>
</filter>
</defs>
</svg>
