<svg width="529" height="732" viewBox="0 0 529 732" fill="none" xmlns="http://www.w3.org/2000/svg">
<path d="M472.805 62.9683L301.002 162.396" stroke="#B7CBFE" stroke-width="16" stroke-linecap="round"/>
<path d="M531.002 703.956L195.002 506.956" stroke="#B7CBFE" stroke-width="16" stroke-linecap="round"/>
<path d="M276.002 171.968C276.002 176.387 279.583 179.968 284.002 179.968C288.42 179.968 292.002 176.387 292.002 171.968C292.002 167.55 288.42 163.968 284.002 163.968C279.583 163.968 276.002 167.55 276.002 171.968Z" fill="#B7CBFE"/>
<path d="M482.002 51.9684C482.002 56.3867 485.583 59.9684 490.002 59.9684C494.42 59.9684 498.002 56.3867 498.002 51.9684C498.002 47.5501 494.42 43.9684 490.002 43.9684C485.583 43.9684 482.002 47.5501 482.002 51.9684Z" fill="#B7CBFE"/>
<path d="M51.0018 383.321C37.6684 375.623 37.6684 356.378 51.0017 348.68L540.002 66.3553C553.335 58.6573 570.002 68.2798 570.002 83.6758L570.002 648.324C570.002 663.72 553.335 673.343 540.002 665.645L51.0018 383.321Z" fill="#B7CBFE"/>
<rect x="261.157" y="262.738" width="127.662" height="128.027" rx="30" transform="rotate(-29.4511 261.157 262.738)" fill="#F9E5B2"/>
<path d="M311.602 329.717C305.25 352.545 348.125 373.28 325.297 366.928C216.317 323.245 134.008 261.152 140.516 245.149C147.024 229.146 254.08 249.582 276.909 255.934C291.422 258.191 317.954 306.888 311.602 329.717Z" fill="#F9E5B2"/>
<path d="M358.555 342.781C352.203 365.61 304.78 361.22 327.608 367.571C443.488 386.454 546.039 375.798 548.732 358.733C551.425 341.669 449.199 303.873 426.371 297.521C412.777 291.957 364.906 319.953 358.555 342.781Z" fill="#F9E5B2"/>
<path d="M425.712 297.338C425.712 297.338 390.08 293.213 348.989 281.779C307.898 270.346 276.908 255.934 276.908 255.934C288.342 214.843 330.921 190.8 372.012 202.234C413.104 213.667 437.146 256.247 425.712 297.338Z" fill="white"/>
<g filter="url(#filter0_f_94_19)">
<path d="M425.713 297.338C425.713 297.338 390.08 293.213 348.989 281.779C307.898 270.346 276.908 255.934 276.908 255.934C285.001 228.977 285.001 240.977 290.501 254.477C317.501 270.977 352.001 284.477 425.713 297.338Z" fill="#D9D9D9" fill-opacity="0.3"/>
</g>
<g filter="url(#filter1_f_94_19)">
<path d="M425.712 297.338C425.712 297.338 390.08 293.213 348.989 281.779C307.898 270.346 276.908 255.934 276.908 255.934C216.501 242.49 287.501 268.49 313.501 276.99C354.592 288.423 358.501 287.477 425.712 297.338Z" fill="#9F4A4A" fill-opacity="0.2"/>
</g>
<path d="M421 274.994C421 274.994 418.5 293.552 405 291.994C377.5 288.821 393 254.494 393 254.494C413 201.494 344 205.494 376.5 216.494C401 226.994 421 233.651 421 274.994Z" fill="#B2DFF9" fill-opacity="0.2"/>
<circle cx="326.002" cy="366.969" r="4" fill="#EDD9A8"/>
<rect x="315.002" y="380.207" width="16" height="4" rx="2" transform="rotate(-55.8306 315.002 380.207)" fill="#EDD9A8"/>
<circle cx="316.002" cy="381.969" r="4" fill="#EDD9A8"/>
<rect x="302.002" y="388.34" width="16" height="4" rx="2" transform="rotate(-31.5492 302.002 388.34)" fill="#EDD9A8"/>
<path d="M305.493 388.961C308.577 395.584 305.708 403.454 299.085 406.538C292.461 409.622 291.001 404.092 287.917 397.469C284.833 390.845 281.293 385.636 287.917 382.552C294.54 379.469 302.409 382.338 305.493 388.961Z" fill="#EDD9A8"/>
<path d="M294.002 394.969C297.086 401.592 295.051 405.695 295.002 407.469C292.002 406.469 291.086 404.592 288.002 397.969C284.918 391.345 283.502 388.469 284.502 385.969C286.036 386.13 290.918 388.345 294.002 394.969Z" fill="#9F4A4A"/>
<path d="M288.197 397.155C287.705 396.166 288.108 394.965 289.097 394.474L292.635 392.714L294.416 396.295L290.878 398.055C289.889 398.547 288.689 398.144 288.197 397.155V397.155Z" fill="#EDD9A8"/>
<circle cx="287.002" cy="397.969" r="4" fill="#EDD9A8"/>
<g opacity="0.6">
<path d="M294.002 394.969C297.086 401.592 295.051 405.695 295.002 407.469C292.002 406.469 291.086 404.592 288.002 397.969C284.918 391.346 283.502 388.469 284.502 385.969C286.036 386.13 290.918 388.346 294.002 394.969Z" fill="#F9E5B2"/>
<path d="M284.5 385.993C296.1 390.393 296.334 402.16 295 407.493C286.5 415.493 292 418.493 282 422.493C264.384 429.54 280 437.493 262.5 442.493C245 447.493 251.5 456.493 239 467.493C226.5 478.493 237 507.493 210 497.493C183 487.493 184 503.993 159.5 490.493C135 476.993 116 488.493 106.5 480.993C97.0002 473.493 84.0002 477.993 79.0002 459.493C74.0002 440.993 60.5002 444.493 55.0002 428.993C49.5002 413.493 39.4998 408.994 51.0002 405.993C75.6788 399.554 61.0002 398.993 89.0002 401.993C117 404.993 104.5 394.993 127.5 398.493C150.5 401.993 143 392.993 170.5 394.993C198 396.993 188 387.993 207 391.993C226 395.993 218.5 385.993 235 389.493C251.5 392.993 243 381.493 260.5 387.493C278 393.493 270 380.493 284.5 385.993Z" fill="#C1F9C0"/>
</g>
<g filter="url(#filter2_f_94_19)">
<path d="M535.001 366.95C530.447 383.168 370.137 379.589 327.001 367.476C221.137 330.002 136.947 262.207 141.501 245.99C227.501 287.99 229.501 290.476 327.001 325.976C413.001 347.976 429.001 350.976 535.001 366.95Z" fill="#9F4A4A" fill-opacity="0.25"/>
</g>
<path d="M98.9951 200.094C99.5053 196.639 104.139 195.855 105.757 198.951V198.951C106.481 200.335 108.013 201.096 109.553 200.835V200.835C112.997 200.252 115.174 204.417 112.731 206.912V206.912C111.638 208.028 111.388 209.721 112.112 211.105V211.105C113.73 214.2 110.442 217.558 107.314 216.005V216.005C105.915 215.311 104.227 215.596 103.135 216.712V216.712C100.691 219.208 96.4818 217.118 96.9919 213.663V213.663C97.22 212.118 96.4272 210.602 95.0282 209.907V209.907C91.8997 208.354 92.5861 203.705 96.0298 203.123V203.123C97.5699 202.862 98.767 201.64 98.9951 200.094V200.094Z" fill="#FDDA83"/>
<path d="M101.107 202.553C101.561 199.481 105.68 198.784 107.119 201.536V201.536C107.762 202.766 109.125 203.443 110.494 203.211V203.211C113.555 202.693 115.491 206.395 113.319 208.614V208.614C112.347 209.606 112.125 211.111 112.768 212.342V212.342C114.207 215.093 111.284 218.078 108.503 216.698V216.698C107.259 216.08 105.759 216.334 104.787 217.326V217.326C102.615 219.545 98.8727 217.687 99.3262 214.616V214.616C99.529 213.242 98.8242 211.894 97.5804 211.276V211.276C94.7991 209.896 95.4093 205.763 98.4709 205.245V205.245C99.84 205.013 100.904 203.926 101.107 202.553V202.553Z" fill="#B2DFF9"/>
<path d="M476.178 155.277C478.108 152.366 482.635 153.626 482.784 157.115V157.115C482.851 158.676 483.915 160.016 485.42 160.434V160.434C488.785 161.371 488.986 166.066 485.713 167.286V167.286C484.25 167.832 483.304 169.258 483.371 170.818V170.818C483.52 174.308 479.117 175.95 476.945 173.215V173.215C475.974 171.991 474.326 171.533 472.862 172.078V172.078C469.59 173.299 466.667 169.619 468.598 166.708V166.708C469.461 165.406 469.388 163.696 468.416 162.473V162.473C466.244 159.738 468.841 155.822 472.206 156.758V156.758C473.711 157.177 475.314 156.579 476.178 155.277V155.277Z" fill="#FDDA83"/>
<path d="M478.875 155.818C480.605 153.209 484.662 154.338 484.796 157.465V157.465C484.856 158.864 485.81 160.065 487.158 160.44V160.44C490.174 161.279 490.354 165.487 487.421 166.581V166.581C486.109 167.07 485.262 168.348 485.322 169.747V169.747C485.456 172.874 481.509 174.346 479.563 171.894V171.894C478.692 170.798 477.215 170.387 475.903 170.876V170.876C472.97 171.97 470.351 168.671 472.081 166.063V166.063C472.855 164.896 472.789 163.364 471.919 162.267V162.267C469.972 159.816 472.3 156.306 475.316 157.145V157.145C476.664 157.52 478.101 156.984 478.875 155.818V155.818Z" fill="#B2DFF9"/>
<path d="M481.178 438.277C483.108 435.366 487.635 436.626 487.784 440.115V440.115C487.851 441.676 488.915 443.016 490.42 443.434V443.434C493.785 444.371 493.986 449.066 490.713 450.286V450.286C489.25 450.832 488.304 452.258 488.371 453.818V453.818C488.52 457.308 484.117 458.95 481.945 456.215V456.215C480.974 454.991 479.326 454.533 477.862 455.078V455.078C474.59 456.299 471.667 452.619 473.598 449.708V449.708C474.461 448.406 474.388 446.696 473.416 445.473V445.473C471.244 442.738 473.841 438.822 477.206 439.758V439.758C478.711 440.177 480.314 439.579 481.178 438.277V438.277Z" fill="#FDDA83"/>
<path d="M478.669 440.773C480.38 438.192 484.395 439.309 484.528 442.404V442.404C484.587 443.788 485.531 444.976 486.865 445.347V445.347C489.849 446.178 490.028 450.342 487.125 451.424V451.424C485.828 451.908 484.989 453.173 485.048 454.557V454.557C485.181 457.651 481.276 459.107 479.35 456.682V456.682C478.488 455.597 477.026 455.19 475.728 455.674V455.674C472.826 456.756 470.234 453.492 471.946 450.911V450.911C472.712 449.757 472.647 448.24 471.785 447.156V447.156C469.859 444.73 472.162 441.256 475.147 442.087V442.087C476.481 442.458 477.903 441.928 478.669 440.773V440.773Z" fill="#B2DFF9"/>
<path d="M236.46 80.0935C237.663 76.8146 242.359 76.9908 243.313 80.3506V80.3506C243.74 81.8532 245.085 82.9101 246.646 82.9687V82.9687C250.136 83.0996 251.42 87.6202 248.519 89.5658V89.5658C247.222 90.4358 246.633 92.0422 247.059 93.5448V93.5448C248.013 96.9046 244.111 99.5223 241.364 97.3649V97.3649C240.136 96.4001 238.426 96.3359 237.129 97.206V97.206C234.228 99.1515 230.532 96.2487 231.735 92.9698V92.9698C232.274 91.5035 231.806 89.8574 230.578 88.8926V88.8926C227.831 86.7352 229.45 82.3235 232.94 82.4544V82.4544C234.501 82.513 235.922 81.5599 236.46 80.0935V80.0935Z" fill="#FDDA83"/>
<path d="M235.148 82.2141C236.255 79.1966 240.577 79.3588 241.455 82.4508V82.4508C241.847 83.8336 243.086 84.8063 244.522 84.8602V84.8602C247.734 84.9807 248.915 89.1409 246.246 90.9314V90.9314C245.052 91.7321 244.51 93.2104 244.903 94.5932V94.5932C245.78 97.6852 242.189 100.094 239.661 98.1088V98.1088C238.531 97.2209 236.957 97.1618 235.763 97.9626V97.9626C233.094 99.753 229.693 97.0816 230.8 94.0641V94.0641C231.295 92.7146 230.865 91.1998 229.735 90.3119V90.3119C227.207 88.3264 228.697 84.2664 231.909 84.3869V84.3869C233.345 84.4408 234.653 83.5636 235.148 82.2141V82.2141Z" fill="#B2DFF9"/>
<defs>
<filter id="filter0_f_94_19" x="272.908" y="235.786" width="156.804" height="65.5513" filterUnits="userSpaceOnUse" color-interpolation-filters="sRGB">
<feFlood flood-opacity="0" result="BackgroundImageFix"/>
<feBlend mode="normal" in="SourceGraphic" in2="BackgroundImageFix" result="shape"/>
<feGaussianBlur stdDeviation="2" result="effect1_foregroundBlur_94_19"/>
</filter>
<filter id="filter1_f_94_19" x="249.197" y="248.145" width="180.516" height="53.1926" filterUnits="userSpaceOnUse" color-interpolation-filters="sRGB">
<feFlood flood-opacity="0" result="BackgroundImageFix"/>
<feBlend mode="normal" in="SourceGraphic" in2="BackgroundImageFix" result="shape"/>
<feGaussianBlur stdDeviation="2" result="effect1_foregroundBlur_94_19"/>
</filter>
<filter id="filter2_f_94_19" x="137.324" y="241.99" width="401.677" height="139.878" filterUnits="userSpaceOnUse" color-interpolation-filters="sRGB">
<feFlood flood-opacity="0" result="BackgroundImageFix"/>
<feBlend mode="normal" in="SourceGraphic" in2="BackgroundImageFix" result="shape"/>
<feGaussianBlur stdDeviation="2" result="effect1_foregroundBlur_94_19"/>
</filter>
</defs>
</svg>
